<svg xmlns="http://www.w3.org/2000/svg" xmlns:xlink="http://www.w3.org/1999/xlink" width="500" zoomAndPan="magnify" viewBox="0 0 375 374.999991" height="500" preserveAspectRatio="xMidYMid meet" version="1.0"><defs><g/><clipPath id="0d0099015e"><path d="M 12.5 19.710938 L 362.5 19.710938 L 362.5 355.289062 L 12.5 355.289062 Z M 12.5 19.710938 " clip-rule="nonzero"/></clipPath><clipPath id="f52a7930c2"><path d="M 187.5 19.710938 C 90.851562 19.710938 12.5 94.832031 12.5 187.5 C 12.5 280.167969 90.851562 355.289062 187.5 355.289062 C 284.148438 355.289062 362.5 280.167969 362.5 187.5 C 362.5 94.832031 284.148438 19.710938 187.5 19.710938 Z M 187.5 19.710938 " clip-rule="nonzero"/></clipPath><clipPath id="c56cf56214"><path d="M 116 64.109375 L 275.96875 64.109375 L 275.96875 226.859375 L 116 226.859375 Z M 116 64.109375 " clip-rule="nonzero"/></clipPath></defs><g clip-path="url(#0d0099015e)"><g clip-path="url(#f52a7930c2)"><path fill="#fbfaf9" d="M 12.5 19.710938 L 362.5 19.710938 L 362.5 355.289062 L 12.5 355.289062 Z M 12.5 19.710938 " fill-opacity="1" fill-rule="nonzero"/></g></g><g clip-path="url(#c56cf56214)"><path fill="#1f2937" d="M 236.578125 145.71875 C 236.578125 171.992188 221.359375 186.871094 198.429688 186.871094 L 176.832031 186.871094 L 176.832031 190.089844 L 167.058594 190.089844 L 167.058594 180.292969 L 176.730469 180.292969 L 176.730469 155.28125 L 170.433594 155.28125 L 170.433594 144.660156 L 176.730469 144.660156 L 176.730469 106.007812 L 167.554688 106.007812 L 167.554688 96.210938 L 177.328125 96.210938 L 177.328125 104.097656 L 198.429688 104.097656 C 221.359375 104.097656 236.578125 119.210938 236.578125 145.253906 Z M 202.253906 209.710938 L 192.480469 209.710938 L 192.480469 199.914062 L 202.253906 199.914062 Z M 188.953125 208.0625 L 179.183594 208.0625 L 179.183594 198.269531 L 188.953125 198.269531 Z M 179.863281 221.351562 L 175.300781 221.351562 L 175.300781 226.621094 L 168.234375 226.621094 L 168.234375 219.535156 L 172.796875 219.535156 L 172.796875 217.890625 L 169.074219 217.890625 L 169.074219 208.355469 L 165.546875 208.355469 L 165.546875 216.246094 L 155.777344 216.246094 L 155.777344 206.449219 L 164.027344 206.449219 L 164.027344 201.269531 L 171.09375 201.269531 L 171.09375 208.09375 L 178.847656 208.09375 L 178.847656 214.269531 L 179.863281 214.269531 Z M 152.074219 135.917969 L 152.074219 128.832031 L 159.144531 128.832031 L 159.144531 135.917969 Z M 143.308594 122.917969 L 143.308594 115.832031 L 147.871094 115.832031 L 147.871094 110.566406 L 154.9375 110.566406 L 154.9375 117.652344 L 150.375 117.652344 L 150.375 122.917969 Z M 139.101562 97.566406 L 146.171875 97.566406 L 146.171875 104.652344 L 139.101562 104.652344 Z M 142.132812 76.589844 L 151.90625 76.589844 L 151.90625 86.386719 L 142.132812 86.386719 Z M 168.914062 162.910156 L 168.914062 172.707031 L 159.144531 172.707031 L 159.144531 162.910156 Z M 154.257812 94.566406 L 164.027344 94.566406 L 164.027344 104.363281 L 154.257812 104.363281 Z M 153.425781 198.269531 L 143.65625 198.269531 L 143.65625 188.472656 L 153.425781 188.472656 Z M 147.691406 216.535156 L 140.625 216.535156 L 140.625 209.453125 L 147.691406 209.453125 Z M 197.835938 64.109375 L 180.1875 64.109375 L 180.1875 70.613281 L 170.414062 70.613281 L 170.414062 64.109375 L 143.988281 64.109375 L 143.988281 69.007812 L 136.835938 69.007812 L 136.835938 124.613281 L 130.453125 124.613281 L 130.453125 134.410156 L 136.835938 134.410156 L 136.835938 152.554688 L 143.660156 152.554688 L 143.660156 144.660156 L 154.257812 144.660156 L 154.257812 155.28125 L 147.417969 155.28125 L 147.417969 163.179688 L 136.835938 163.179688 L 136.835938 169.589844 L 131.152344 169.589844 L 131.152344 177.984375 L 135.738281 177.984375 L 135.738281 171.09375 L 145.507812 171.09375 L 145.507812 180.890625 L 136.835938 180.890625 L 136.835938 191.335938 L 126.238281 191.335938 L 126.238281 199.230469 L 121.1875 199.230469 L 121.1875 204.496094 L 116.625 204.496094 L 116.625 211.578125 L 123.691406 211.578125 L 123.691406 206.3125 L 128.253906 206.3125 L 128.253906 201.957031 L 136.835938 201.957031 L 136.835938 226.863281 L 149.390625 226.863281 L 149.390625 222.449219 L 156.457031 222.449219 L 156.457031 226.863281 L 197.046875 226.863281 C 246.855469 226.863281 275.914062 191.984375 275.914062 145.019531 L 275.914062 144.554688 C 275.914062 97.589844 247.25 64.109375 197.835938 64.109375 " fill-opacity="1" fill-rule="nonzero"/></g><path fill="#1f2937" d="M 125.640625 76.589844 L 115.867188 76.589844 L 115.867188 86.386719 L 125.640625 86.386719 L 125.640625 76.589844 " fill-opacity="1" fill-rule="nonzero"/><path fill="#1f2937" d="M 111.070312 86.386719 L 101.296875 86.386719 L 101.296875 96.183594 L 111.070312 96.183594 L 111.070312 86.386719 " fill-opacity="1" fill-rule="nonzero"/><path fill="#1f2937" d="M 107.714844 123.265625 L 97.941406 123.265625 L 97.941406 133.058594 L 107.714844 133.058594 L 107.714844 123.265625 " fill-opacity="1" fill-rule="nonzero"/><path fill="#1f2937" d="M 99.796875 105.882812 L 90.023438 105.882812 L 90.023438 115.679688 L 99.796875 115.679688 L 99.796875 105.882812 " fill-opacity="1" fill-rule="nonzero"/><path fill="#1f2937" d="M 131.125 100.984375 L 121.355469 100.984375 L 121.355469 110.78125 L 131.125 110.78125 L 131.125 100.984375 " fill-opacity="1" fill-rule="nonzero"/><path fill="#1f2937" d="M 123.363281 152.683594 L 133.132812 152.683594 L 133.132812 142.886719 L 123.363281 142.886719 L 123.363281 152.683594 " fill-opacity="1" fill-rule="nonzero"/><path fill="#1f2937" d="M 107.882812 182.589844 L 114.949219 182.589844 L 114.949219 175.503906 L 107.882812 175.503906 L 107.882812 182.589844 " fill-opacity="1" fill-rule="nonzero"/><path fill="#1f2937" d="M 94.910156 151.324219 L 101.976562 151.324219 L 101.976562 144.242188 L 94.910156 144.242188 L 94.910156 151.324219 " fill-opacity="1" fill-rule="nonzero"/><path fill="#1f2937" d="M 110.746094 157.242188 L 103.675781 157.242188 L 103.675781 162.507812 L 99.117188 162.507812 L 99.117188 169.589844 L 106.183594 169.589844 L 106.183594 164.324219 L 110.746094 164.324219 L 110.746094 157.242188 " fill-opacity="1" fill-rule="nonzero"/><path fill="#1f2937" d="M 115.953125 109.140625 L 108.886719 109.140625 L 108.886719 116.222656 L 115.953125 116.222656 L 115.953125 109.140625 " fill-opacity="1" fill-rule="nonzero"/><path fill="#1f2937" d="M 117.652344 127.402344 L 113.09375 127.402344 L 113.09375 134.488281 L 120.160156 134.488281 L 120.160156 129.222656 L 124.71875 129.222656 L 124.71875 122.136719 L 117.652344 122.136719 L 117.652344 127.402344 " fill-opacity="1" fill-rule="nonzero"/><path fill="#1f2937" d="M 92.628906 209.851562 L 103.226562 209.851562 L 103.226562 199.230469 L 92.628906 199.230469 L 92.628906 209.851562 " fill-opacity="1" fill-rule="nonzero"/><path fill="#1f2937" d="M 147.417969 155.28125 L 147.417969 152.554688 L 143.660156 152.554688 L 143.660156 155.28125 L 147.417969 155.28125 " fill-opacity="1" fill-rule="nonzero"/><g fill="#1f2937" fill-opacity="1"><g transform="translate(83.278054, 272.001803)"><g><path d="M 8.90625 0 L 3.53125 0 L 3.53125 -27.203125 L 8.90625 -27.203125 Z M 8.90625 0 "/></g></g></g><g fill="#1f2937" fill-opacity="1"><g transform="translate(95.744873, 272.001803)"><g><path d="M 16.171875 0 L 9.671875 0 L 0.484375 -27.203125 L 6.203125 -27.203125 L 12.796875 -6.921875 L 13.265625 -6.921875 L 19.78125 -27.203125 L 25.34375 -27.203125 Z M 16.171875 0 "/></g></g></g><g fill="#1f2937" fill-opacity="1"><g transform="translate(121.571654, 272.001803)"><g><path d="M 26.109375 0 L 20.453125 0 L 18.40625 -6.265625 L 7.984375 -6.265625 L 5.9375 0 L 0.40625 0 L 9.8125 -27.203125 L 16.703125 -27.203125 Z M 12.9375 -21.53125 L 9.4375 -10.796875 L 16.921875 -10.796875 L 13.390625 -21.53125 Z M 12.9375 -21.53125 "/></g></g></g><g fill="#1f2937" fill-opacity="1"><g transform="translate(148.08691, 272.001803)"><g><path d="M 8.75 0 L 3.53125 0 L 3.53125 -27.203125 L 9.6875 -27.203125 L 20.625 -9.671875 L 21.109375 -9.75 L 21.109375 -27.203125 L 26.28125 -27.203125 L 26.28125 0 L 20.765625 0 L 9.21875 -18.71875 L 8.75 -18.640625 Z M 8.75 0 "/></g></g></g><g fill="#1f2937" fill-opacity="1"><g transform="translate(177.914244, 272.001803)"><g><path d="M 26.109375 0 L 20.453125 0 L 18.40625 -6.265625 L 7.984375 -6.265625 L 5.9375 0 L 0.40625 0 L 9.8125 -27.203125 L 16.703125 -27.203125 Z M 12.9375 -21.53125 L 9.4375 -10.796875 L 16.921875 -10.796875 L 13.390625 -21.53125 Z M 12.9375 -21.53125 "/></g></g></g><g fill="#1f2937" fill-opacity="1"><g transform="translate(213.416781, 272.001803)"><g><path d="M 13.328125 -27.203125 C 17.742188 -27.203125 21.113281 -26.0625 23.4375 -23.78125 C 25.757812 -21.5 26.921875 -18.109375 26.921875 -13.609375 C 26.921875 -9.109375 25.757812 -5.710938 23.4375 -3.421875 C 21.113281 -1.140625 17.742188 0 13.328125 0 L 3.53125 0 L 3.53125 -27.203125 Z M 13 -4.515625 C 15.8125 -4.515625 17.910156 -5.226562 19.296875 -6.65625 C 20.679688 -8.09375 21.375 -10.410156 21.375 -13.609375 C 21.375 -16.796875 20.679688 -19.101562 19.296875 -20.53125 C 17.910156 -21.96875 15.8125 -22.6875 13 -22.6875 L 8.90625 -22.6875 L 8.90625 -4.515625 Z M 13 -4.515625 "/></g></g></g><g fill="#1f2937" fill-opacity="1"><g transform="translate(242.499829, 272.001803)"><g><path d="M 8.90625 -11.953125 L 8.90625 -4.5 L 21.90625 -4.5 L 21.90625 0 L 3.53125 0 L 3.53125 -27.203125 L 21.609375 -27.203125 L 21.609375 -22.703125 L 8.90625 -22.703125 L 8.90625 -16.34375 L 20 -16.34375 L 20 -11.953125 Z M 8.90625 -11.953125 "/></g></g></g><g fill="#1f2937" fill-opacity="1"><g transform="translate(265.889076, 272.001803)"><g><path d="M 16.171875 0 L 9.671875 0 L 0.484375 -27.203125 L 6.203125 -27.203125 L 12.796875 -6.921875 L 13.265625 -6.921875 L 19.78125 -27.203125 L 25.34375 -27.203125 Z M 16.171875 0 "/></g></g></g><g fill="#000000" fill-opacity="1"><g transform="translate(87.141869, 306.085272)"><g><path d="M 7.078125 -14.90625 C 8.585938 -14.90625 9.882812 -14.632812 10.96875 -14.09375 C 12.050781 -13.5625 12.882812 -12.738281 13.46875 -11.625 C 14.0625 -10.519531 14.359375 -9.128906 14.359375 -7.453125 C 14.359375 -5.785156 14.0625 -4.394531 13.46875 -3.28125 C 12.882812 -2.175781 12.050781 -1.351562 10.96875 -0.8125 C 9.882812 -0.269531 8.585938 0 7.078125 0 L 2.25 0 L 2.25 -14.90625 Z M 6.90625 -1.484375 C 8.144531 -1.484375 9.171875 -1.675781 9.984375 -2.0625 C 10.804688 -2.457031 11.425781 -3.09375 11.84375 -3.96875 C 12.269531 -4.84375 12.484375 -6.003906 12.484375 -7.453125 C 12.484375 -8.910156 12.269531 -10.078125 11.84375 -10.953125 C 11.425781 -11.828125 10.804688 -12.457031 9.984375 -12.84375 C 9.171875 -13.226562 8.144531 -13.421875 6.90625 -13.421875 L 4.015625 -13.421875 L 4.015625 -1.484375 Z M 6.90625 -1.484375 "/></g></g></g><g fill="#000000" fill-opacity="1"><g transform="translate(106.717923, 306.085272)"><g><path d="M 10.71875 -5.25 L 2.984375 -5.25 C 3.035156 -3.875 3.363281 -2.867188 3.96875 -2.234375 C 4.582031 -1.597656 5.421875 -1.28125 6.484375 -1.28125 C 7.285156 -1.28125 7.929688 -1.421875 8.421875 -1.703125 C 8.910156 -1.984375 9.289062 -2.429688 9.5625 -3.046875 L 9.78125 -3.046875 L 10.859375 -2.40625 C 10.535156 -1.59375 10.015625 -0.953125 9.296875 -0.484375 C 8.578125 -0.015625 7.640625 0.21875 6.484375 0.21875 C 5.390625 0.21875 4.453125 0.00390625 3.671875 -0.421875 C 2.890625 -0.859375 2.285156 -1.507812 1.859375 -2.375 C 1.441406 -3.25 1.234375 -4.332031 1.234375 -5.625 C 1.234375 -6.894531 1.457031 -7.96875 1.90625 -8.84375 C 2.351562 -9.726562 2.960938 -10.382812 3.734375 -10.8125 C 4.503906 -11.25 5.382812 -11.46875 6.375 -11.46875 C 7.8125 -11.46875 8.9375 -11.0625 9.75 -10.25 C 10.5625 -9.4375 10.96875 -8.226562 10.96875 -6.625 C 10.96875 -6 10.957031 -5.578125 10.9375 -5.359375 Z M 9.328125 -6.625 C 9.304688 -7.820312 9.039062 -8.691406 8.53125 -9.234375 C 8.03125 -9.785156 7.3125 -10.0625 6.375 -10.0625 C 5.382812 -10.0625 4.609375 -9.785156 4.046875 -9.234375 C 3.492188 -8.691406 3.15625 -7.820312 3.03125 -6.625 Z M 9.328125 -6.625 "/></g></g></g><g fill="#000000" fill-opacity="1"><g transform="translate(122.437345, 306.085272)"><g><path d="M 5.125 0.21875 C 4.414062 0.21875 3.757812 0.125 3.15625 -0.0625 C 2.5625 -0.25 2.054688 -0.503906 1.640625 -0.828125 C 1.222656 -1.160156 0.929688 -1.53125 0.765625 -1.9375 L 1.75 -2.953125 L 1.953125 -2.953125 C 2.328125 -2.398438 2.769531 -1.984375 3.28125 -1.703125 C 3.800781 -1.421875 4.414062 -1.28125 5.125 -1.28125 C 5.957031 -1.28125 6.585938 -1.441406 7.015625 -1.765625 C 7.453125 -2.085938 7.671875 -2.535156 7.671875 -3.109375 C 7.671875 -3.554688 7.539062 -3.921875 7.28125 -4.203125 C 7.019531 -4.492188 6.597656 -4.710938 6.015625 -4.859375 L 4.109375 -5.328125 C 3.097656 -5.566406 2.359375 -5.953125 1.890625 -6.484375 C 1.421875 -7.015625 1.1875 -7.671875 1.1875 -8.453125 C 1.1875 -9.066406 1.34375 -9.597656 1.65625 -10.046875 C 1.96875 -10.503906 2.414062 -10.851562 3 -11.09375 C 3.59375 -11.34375 4.296875 -11.46875 5.109375 -11.46875 C 6.140625 -11.46875 6.953125 -11.320312 7.546875 -11.03125 C 8.148438 -10.738281 8.617188 -10.335938 8.953125 -9.828125 L 8 -8.90625 L 7.796875 -8.90625 C 7.441406 -9.320312 7.050781 -9.617188 6.625 -9.796875 C 6.195312 -9.984375 5.691406 -10.078125 5.109375 -10.078125 C 4.367188 -10.078125 3.800781 -9.941406 3.40625 -9.671875 C 3.007812 -9.410156 2.8125 -9.03125 2.8125 -8.53125 C 2.8125 -8.070312 2.953125 -7.703125 3.234375 -7.421875 C 3.515625 -7.140625 4 -6.914062 4.6875 -6.75 L 6.5625 -6.296875 C 7.539062 -6.066406 8.242188 -5.679688 8.671875 -5.140625 C 9.109375 -4.609375 9.328125 -3.9375 9.328125 -3.125 C 9.328125 -2.46875 9.171875 -1.882812 8.859375 -1.375 C 8.546875 -0.875 8.070312 -0.484375 7.4375 -0.203125 C 6.8125 0.078125 6.039062 0.21875 5.125 0.21875 Z M 5.125 0.21875 "/></g></g></g><g fill="#000000" fill-opacity="1"><g transform="translate(136.565143, 306.085272)"><g><path d="M 4.640625 0.21875 C 3.535156 0.21875 2.671875 -0.0664062 2.046875 -0.640625 C 1.421875 -1.222656 1.109375 -2.050781 1.109375 -3.125 C 1.109375 -3.789062 1.242188 -4.351562 1.515625 -4.8125 C 1.796875 -5.28125 2.222656 -5.65625 2.796875 -5.9375 C 3.378906 -6.226562 4.132812 -6.453125 5.0625 -6.609375 C 5.882812 -6.742188 6.503906 -6.894531 6.921875 -7.0625 C 7.347656 -7.238281 7.632812 -7.429688 7.78125 -7.640625 C 7.925781 -7.847656 8 -8.113281 8 -8.4375 C 8 -8.945312 7.820312 -9.335938 7.46875 -9.609375 C 7.125 -9.878906 6.566406 -10.015625 5.796875 -10.015625 C 5.066406 -10.015625 4.441406 -9.875 3.921875 -9.59375 C 3.398438 -9.3125 2.921875 -8.890625 2.484375 -8.328125 L 2.28125 -8.328125 L 1.46875 -9.484375 C 1.945312 -10.085938 2.550781 -10.566406 3.28125 -10.921875 C 4.019531 -11.285156 4.859375 -11.46875 5.796875 -11.46875 C 7.117188 -11.46875 8.09375 -11.175781 8.71875 -10.59375 C 9.351562 -10.007812 9.671875 -9.207031 9.671875 -8.1875 L 9.671875 -2.21875 C 9.671875 -1.59375 9.9375 -1.28125 10.46875 -1.28125 C 10.644531 -1.28125 10.8125 -1.304688 10.96875 -1.359375 L 11.125 -1.328125 L 11.3125 -0.171875 C 11.1875 -0.0859375 11.023438 -0.0234375 10.828125 0.015625 C 10.628906 0.0546875 10.421875 0.078125 10.203125 0.078125 C 9.585938 0.078125 9.117188 -0.0546875 8.796875 -0.328125 C 8.484375 -0.597656 8.285156 -1 8.203125 -1.53125 L 7.984375 -1.546875 C 7.660156 -0.953125 7.226562 -0.507812 6.6875 -0.21875 C 6.144531 0.0703125 5.460938 0.21875 4.640625 0.21875 Z M 5.015625 -1.109375 C 5.640625 -1.109375 6.179688 -1.253906 6.640625 -1.546875 C 7.097656 -1.835938 7.445312 -2.242188 7.6875 -2.765625 C 7.9375 -3.285156 8.0625 -3.890625 8.0625 -4.578125 L 8.0625 -6.015625 L 7.859375 -6.046875 C 7.609375 -5.867188 7.300781 -5.71875 6.9375 -5.59375 C 6.582031 -5.476562 6.082031 -5.375 5.4375 -5.28125 C 4.78125 -5.195312 4.257812 -5.0625 3.875 -4.875 C 3.5 -4.6875 3.226562 -4.453125 3.0625 -4.171875 C 2.894531 -3.890625 2.8125 -3.539062 2.8125 -3.125 C 2.8125 -2.46875 3.003906 -1.96875 3.390625 -1.625 C 3.785156 -1.28125 4.328125 -1.109375 5.015625 -1.109375 Z M 5.015625 -1.109375 "/></g></g></g><g fill="#000000" fill-opacity="1"><g transform="translate(151.927467, 306.085272)"><g><path d="M 1.953125 0 L 1.953125 -11.25 L 3.546875 -11.25 L 3.546875 -9.484375 L 3.75 -9.4375 C 4.28125 -10.71875 5.269531 -11.359375 6.71875 -11.359375 C 7.476562 -11.359375 8.050781 -11.21875 8.4375 -10.9375 L 8 -9.53125 L 7.796875 -9.484375 C 7.378906 -9.691406 6.921875 -9.796875 6.421875 -9.796875 C 5.515625 -9.796875 4.820312 -9.457031 4.34375 -8.78125 C 3.863281 -8.113281 3.625 -7.023438 3.625 -5.515625 L 3.625 0 Z M 1.953125 0 "/></g></g></g><g fill="#000000" fill-opacity="1"><g transform="translate(164.341202, 306.085272)"><g><path d="M 1.953125 0 L 1.953125 -11.25 L 3.546875 -11.25 L 3.546875 -9.484375 L 3.75 -9.4375 C 4.28125 -10.71875 5.269531 -11.359375 6.71875 -11.359375 C 7.476562 -11.359375 8.050781 -11.21875 8.4375 -10.9375 L 8 -9.53125 L 7.796875 -9.484375 C 7.378906 -9.691406 6.921875 -9.796875 6.421875 -9.796875 C 5.515625 -9.796875 4.820312 -9.457031 4.34375 -8.78125 C 3.863281 -8.113281 3.625 -7.023438 3.625 -5.515625 L 3.625 0 Z M 1.953125 0 "/></g></g></g><g fill="#000000" fill-opacity="1"><g transform="translate(176.754938, 306.085272)"><g><path d="M 6.453125 0.21875 C 5.390625 0.21875 4.46875 -0.00390625 3.6875 -0.453125 C 2.90625 -0.898438 2.300781 -1.5625 1.875 -2.4375 C 1.445312 -3.3125 1.234375 -4.375 1.234375 -5.625 C 1.234375 -6.863281 1.445312 -7.921875 1.875 -8.796875 C 2.300781 -9.679688 2.90625 -10.347656 3.6875 -10.796875 C 4.46875 -11.242188 5.390625 -11.46875 6.453125 -11.46875 C 7.515625 -11.46875 8.4375 -11.242188 9.21875 -10.796875 C 10.007812 -10.347656 10.613281 -9.679688 11.03125 -8.796875 C 11.457031 -7.921875 11.671875 -6.863281 11.671875 -5.625 C 11.671875 -4.375 11.457031 -3.3125 11.03125 -2.4375 C 10.613281 -1.5625 10.007812 -0.898438 9.21875 -0.453125 C 8.4375 -0.00390625 7.515625 0.21875 6.453125 0.21875 Z M 6.453125 -1.28125 C 7.578125 -1.28125 8.4375 -1.628906 9.03125 -2.328125 C 9.625 -3.035156 9.921875 -4.132812 9.921875 -5.625 C 9.921875 -7.113281 9.625 -8.207031 9.03125 -8.90625 C 8.4375 -9.613281 7.578125 -9.96875 6.453125 -9.96875 C 5.335938 -9.96875 4.476562 -9.613281 3.875 -8.90625 C 3.28125 -8.195312 2.984375 -7.101562 2.984375 -5.625 C 2.984375 -4.132812 3.28125 -3.035156 3.875 -2.328125 C 4.476562 -1.628906 5.335938 -1.28125 6.453125 -1.28125 Z M 6.453125 -1.28125 "/></g></g></g><g fill="#000000" fill-opacity="1"><g transform="translate(193.392604, 306.085272)"><g><path d="M 4.484375 0.21875 C 3.679688 0.21875 3.050781 -0.00390625 2.59375 -0.453125 C 2.144531 -0.910156 1.921875 -1.585938 1.921875 -2.484375 L 1.921875 -15.765625 L 3.578125 -15.765625 L 3.578125 -2.59375 C 3.578125 -2.125 3.664062 -1.785156 3.84375 -1.578125 C 4.03125 -1.378906 4.3125 -1.28125 4.6875 -1.28125 C 4.914062 -1.28125 5.148438 -1.316406 5.390625 -1.390625 L 5.53125 -1.34375 L 5.734375 -0.046875 C 5.609375 0.0351562 5.429688 0.0976562 5.203125 0.140625 C 4.972656 0.191406 4.734375 0.21875 4.484375 0.21875 Z M 4.484375 0.21875 "/></g></g></g><g fill="#000000" fill-opacity="1"><g transform="translate(203.235251, 306.085272)"><g><path d="M 4.484375 0.21875 C 3.679688 0.21875 3.050781 -0.00390625 2.59375 -0.453125 C 2.144531 -0.910156 1.921875 -1.585938 1.921875 -2.484375 L 1.921875 -15.765625 L 3.578125 -15.765625 L 3.578125 -2.59375 C 3.578125 -2.125 3.664062 -1.785156 3.84375 -1.578125 C 4.03125 -1.378906 4.3125 -1.28125 4.6875 -1.28125 C 4.914062 -1.28125 5.148438 -1.316406 5.390625 -1.390625 L 5.53125 -1.34375 L 5.734375 -0.046875 C 5.609375 0.0351562 5.429688 0.0976562 5.203125 0.140625 C 4.972656 0.191406 4.734375 0.21875 4.484375 0.21875 Z M 4.484375 0.21875 "/></g></g></g><g fill="#000000" fill-opacity="1"><g transform="translate(213.077899, 306.085272)"><g><path d="M 6.453125 0.21875 C 5.390625 0.21875 4.46875 -0.00390625 3.6875 -0.453125 C 2.90625 -0.898438 2.300781 -1.5625 1.875 -2.4375 C 1.445312 -3.3125 1.234375 -4.375 1.234375 -5.625 C 1.234375 -6.863281 1.445312 -7.921875 1.875 -8.796875 C 2.300781 -9.679688 2.90625 -10.347656 3.6875 -10.796875 C 4.46875 -11.242188 5.390625 -11.46875 6.453125 -11.46875 C 7.515625 -11.46875 8.4375 -11.242188 9.21875 -10.796875 C 10.007812 -10.347656 10.613281 -9.679688 11.03125 -8.796875 C 11.457031 -7.921875 11.671875 -6.863281 11.671875 -5.625 C 11.671875 -4.375 11.457031 -3.3125 11.03125 -2.4375 C 10.613281 -1.5625 10.007812 -0.898438 9.21875 -0.453125 C 8.4375 -0.00390625 7.515625 0.21875 6.453125 0.21875 Z M 6.453125 -1.28125 C 7.578125 -1.28125 8.4375 -1.628906 9.03125 -2.328125 C 9.625 -3.035156 9.921875 -4.132812 9.921875 -5.625 C 9.921875 -7.113281 9.625 -8.207031 9.03125 -8.90625 C 8.4375 -9.613281 7.578125 -9.96875 6.453125 -9.96875 C 5.335938 -9.96875 4.476562 -9.613281 3.875 -8.90625 C 3.28125 -8.195312 2.984375 -7.101562 2.984375 -5.625 C 2.984375 -4.132812 3.28125 -3.035156 3.875 -2.328125 C 4.476562 -1.628906 5.335938 -1.28125 6.453125 -1.28125 Z M 6.453125 -1.28125 "/></g></g></g><g fill="#000000" fill-opacity="1"><g transform="translate(229.715571, 306.085272)"><g/></g></g><g fill="#000000" fill-opacity="1"><g transform="translate(238.558359, 306.085272)"><g><path d="M 5.578125 0 L 3.484375 0 L 0.71875 -11.25 L 2.359375 -11.25 L 4.5 -1.9375 L 4.71875 -1.9375 L 7.328125 -11.25 L 9.078125 -11.25 L 11.78125 -1.9375 L 12 -1.9375 L 14.09375 -11.25 L 15.671875 -11.25 L 12.953125 0 L 10.84375 0 L 8.265625 -8.734375 L 8.0625 -8.734375 Z M 5.578125 0 "/></g></g></g><g fill="#000000" fill-opacity="1"><g transform="translate(258.685365, 306.085272)"><g><path d="M 10.71875 -5.25 L 2.984375 -5.25 C 3.035156 -3.875 3.363281 -2.867188 3.96875 -2.234375 C 4.582031 -1.597656 5.421875 -1.28125 6.484375 -1.28125 C 7.285156 -1.28125 7.929688 -1.421875 8.421875 -1.703125 C 8.910156 -1.984375 9.289062 -2.429688 9.5625 -3.046875 L 9.78125 -3.046875 L 10.859375 -2.40625 C 10.535156 -1.59375 10.015625 -0.953125 9.296875 -0.484375 C 8.578125 -0.015625 7.640625 0.21875 6.484375 0.21875 C 5.390625 0.21875 4.453125 0.00390625 3.671875 -0.421875 C 2.890625 -0.859375 2.285156 -1.507812 1.859375 -2.375 C 1.441406 -3.25 1.234375 -4.332031 1.234375 -5.625 C 1.234375 -6.894531 1.457031 -7.96875 1.90625 -8.84375 C 2.351562 -9.726562 2.960938 -10.382812 3.734375 -10.8125 C 4.503906 -11.25 5.382812 -11.46875 6.375 -11.46875 C 7.8125 -11.46875 8.9375 -11.0625 9.75 -10.25 C 10.5625 -9.4375 10.96875 -8.226562 10.96875 -6.625 C 10.96875 -6 10.957031 -5.578125 10.9375 -5.359375 Z M 9.328125 -6.625 C 9.304688 -7.820312 9.039062 -8.691406 8.53125 -9.234375 C 8.03125 -9.785156 7.3125 -10.0625 6.375 -10.0625 C 5.382812 -10.0625 4.609375 -9.785156 4.046875 -9.234375 C 3.492188 -8.691406 3.15625 -7.820312 3.03125 -6.625 Z M 9.328125 -6.625 "/></g></g></g><g fill="#000000" fill-opacity="1"><g transform="translate(274.404793, 306.085272)"><g><path d="M 7.484375 0.21875 C 6.640625 0.21875 5.910156 0.0546875 5.296875 -0.265625 C 4.679688 -0.585938 4.191406 -1.015625 3.828125 -1.546875 L 3.625 -1.515625 L 3.625 0 L 1.953125 0 L 1.953125 -15.765625 L 3.625 -15.765625 L 3.625 -9.5625 L 3.828125 -9.53125 C 4.691406 -10.820312 5.9375 -11.46875 7.5625 -11.46875 C 8.488281 -11.46875 9.296875 -11.253906 9.984375 -10.828125 C 10.679688 -10.398438 11.222656 -9.75 11.609375 -8.875 C 11.992188 -8 12.1875 -6.914062 12.1875 -5.625 C 12.1875 -4.34375 11.984375 -3.265625 11.578125 -2.390625 C 11.171875 -1.515625 10.613281 -0.859375 9.90625 -0.421875 C 9.207031 0.00390625 8.398438 0.21875 7.484375 0.21875 Z M 7.078125 -1.28125 C 9.328125 -1.28125 10.453125 -2.726562 10.453125 -5.625 C 10.453125 -7.125 10.15625 -8.222656 9.5625 -8.921875 C 8.976562 -9.617188 8.148438 -9.96875 7.078125 -9.96875 C 6.023438 -9.96875 5.1875 -9.609375 4.5625 -8.890625 C 3.9375 -8.179688 3.625 -7.09375 3.625 -5.625 C 3.625 -4.15625 3.9375 -3.0625 4.5625 -2.34375 C 5.1875 -1.632812 6.023438 -1.28125 7.078125 -1.28125 Z M 7.078125 -1.28125 "/></g></g></g></svg>