<svg xmlns="http://www.w3.org/2000/svg" xmlns:xlink="http://www.w3.org/1999/xlink" width="500" zoomAndPan="magnify" viewBox="0 0 375 374.999991" height="500" preserveAspectRatio="xMidYMid meet" version="1.0"><defs><g/><clipPath id="c6062f0ab9"><path d="M 12.5 24.039062 L 362.5 24.039062 L 362.5 359.617188 L 12.5 359.617188 Z M 12.5 24.039062 " clip-rule="nonzero"/></clipPath><clipPath id="9286aa0ff7"><path d="M 187.5 24.039062 C 90.851562 24.039062 12.5 99.160156 12.5 191.828125 C 12.5 284.492188 90.851562 359.617188 187.5 359.617188 C 284.148438 359.617188 362.5 284.492188 362.5 191.828125 C 362.5 99.160156 284.148438 24.039062 187.5 24.039062 Z M 187.5 24.039062 " clip-rule="nonzero"/></clipPath><clipPath id="1a420cc950"><path d="M 85.285156 72.5 L 290 72.5 L 290 192 L 85.285156 192 Z M 85.285156 72.5 " clip-rule="nonzero"/></clipPath></defs><rect x="-37.5" width="450" fill="#ffffff" y="-37.499999" height="449.999989" fill-opacity="1"/><rect x="-37.5" width="450" fill="#1f2937" y="-37.499999" height="449.999989" fill-opacity="1"/><g clip-path="url(#c6062f0ab9)"><g clip-path="url(#9286aa0ff7)"><path fill="#fbfaf9" d="M 12.5 24.039062 L 362.5 24.039062 L 362.5 359.617188 L 12.5 359.617188 Z M 12.5 24.039062 " fill-opacity="1" fill-rule="nonzero"/></g></g><path fill="#1f2937" d="M 202.21875 194.613281 C 189.09375 198.09375 175.625 200.410156 161.953125 201.234375 C 155.117188 201.648438 148.226562 201.675781 141.308594 201.199219 C 138.375 200.996094 135.433594 200.695312 132.496094 200.292969 L 132.496094 213.304688 C 132.496094 219.195312 137.023438 223.972656 142.613281 223.972656 L 182.710938 223.972656 C 220.761719 223.972656 246.128906 203.207031 254.761719 172.53125 C 250.109375 175.410156 245.335938 178.042969 240.460938 180.425781 C 228.175781 186.460938 215.339844 191.121094 202.21875 194.613281 " fill-opacity="1" fill-rule="nonzero"/><g clip-path="url(#1a420cc950)"><path fill="#1f2937" d="M 194.210938 164.433594 C 185.558594 166.71875 176.804688 168.613281 168.011719 170.039062 L 168.011719 111.898438 C 168.011719 109.375 170.058594 107.328125 172.582031 107.328125 L 191.039062 107.328125 C 212.355469 107.328125 224.71875 121.199219 224.71875 139.9375 C 224.71875 139.9375 224.554688 152.628906 224.230469 154.632812 C 214.464844 158.480469 204.414062 161.726562 194.210938 164.433594 Z M 287.738281 106.335938 C 287.628906 106.09375 287.527344 105.847656 287.414062 105.605469 L 287.027344 104.914062 L 286.238281 103.550781 C 285.964844 103.105469 285.640625 102.703125 285.339844 102.285156 L 284.882812 101.664062 C 284.734375 101.457031 284.574219 101.253906 284.402344 101.074219 L 283.382812 99.960938 C 283.214844 99.78125 283.046875 99.59375 282.871094 99.417969 L 282.324219 98.925781 C 281.957031 98.601562 281.597656 98.273438 281.226562 97.957031 C 280.867188 97.632812 280.460938 97.382812 280.078125 97.09375 C 276.992188 94.863281 273.703125 93.335938 270.378906 92.257812 C 267.0625 91.160156 263.707031 90.492188 260.375 90.0625 C 257.03125 89.6875 253.707031 89.523438 250.398438 89.613281 C 253.519531 90.722656 256.589844 91.84375 259.535156 93.148438 C 262.480469 94.445312 265.296875 95.929688 267.878906 97.585938 C 270.441406 99.269531 272.785156 101.140625 274.558594 103.253906 C 276.335938 105.355469 277.589844 107.589844 277.972656 109.851562 C 278.019531 110.136719 278.066406 110.414062 278.121094 110.6875 C 278.171875 110.964844 278.175781 111.25 278.210938 111.523438 C 278.226562 112.085938 278.234375 112.636719 278.179688 113.191406 C 278.082031 114.304688 277.855469 115.414062 277.484375 116.527344 C 276.75 118.757812 275.46875 120.992188 273.882812 123.148438 C 270.652344 127.457031 266.277344 131.394531 261.519531 134.921875 C 260.230469 135.875 258.910156 136.800781 257.566406 137.703125 C 253.78125 99.148438 227.09375 72.519531 183.464844 72.519531 L 142.613281 72.519531 C 137.023438 72.519531 132.496094 77.296875 132.496094 83.1875 L 132.496094 172.769531 C 131.714844 172.746094 130.933594 172.71875 130.15625 172.679688 C 127.140625 172.558594 124.164062 172.285156 121.234375 171.917969 C 118.3125 171.523438 115.4375 171.015625 112.691406 170.292969 C 109.9375 169.589844 107.320312 168.675781 104.949219 167.546875 C 102.589844 166.40625 100.511719 165.035156 98.929688 163.414062 C 97.335938 161.800781 96.246094 159.914062 95.695312 157.671875 C 95.144531 155.433594 95.269531 152.816406 95.933594 150.097656 C 96.585938 147.367188 97.816406 144.605469 99.292969 141.894531 C 100.792969 139.195312 102.570312 136.546875 104.53125 133.988281 C 106.472656 131.410156 108.613281 128.9375 110.804688 126.453125 C 107.863281 127.976562 105.035156 129.726562 102.296875 131.679688 C 100.9375 132.667969 99.609375 133.710938 98.304688 134.808594 C 97 135.910156 95.761719 137.101562 94.554688 138.351562 C 92.136719 140.855469 89.945312 143.707031 88.203125 147.042969 C 87.328125 148.714844 86.625 150.523438 86.109375 152.457031 C 85.597656 154.390625 85.289062 156.457031 85.304688 158.582031 C 85.320312 160.710938 85.667969 162.871094 86.308594 164.953125 C 86.945312 167.046875 87.929688 169.011719 89.082031 170.804688 C 90.242188 172.605469 91.605469 174.210938 93.058594 175.648438 C 94.511719 177.089844 96.066406 178.351562 97.664062 179.476562 C 100.863281 181.734375 104.238281 183.457031 107.636719 184.890625 C 109.339844 185.59375 111.050781 186.222656 112.773438 186.800781 C 114.492188 187.367188 116.21875 187.859375 117.949219 188.3125 C 124.863281 190.09375 131.820312 191.066406 138.734375 191.546875 C 145.652344 192.019531 152.542969 191.996094 159.378906 191.582031 C 173.054688 190.757812 186.519531 188.441406 199.644531 184.957031 C 212.765625 181.46875 225.605469 176.804688 237.890625 170.773438 C 244.035156 167.765625 250.023438 164.371094 255.808594 160.574219 C 261.578125 156.75 267.15625 152.515625 272.308594 147.613281 C 277.433594 142.703125 282.25 137.15625 285.808594 130.316406 C 286.691406 128.601562 287.472656 126.796875 288.113281 124.894531 C 288.75 122.992188 289.253906 120.996094 289.503906 118.910156 C 290.035156 114.765625 289.574219 110.210938 287.738281 106.335938 " fill-opacity="1" fill-rule="nonzero"/></g><g fill="#1f2937" fill-opacity="1"><g transform="translate(79.480996, 270.847417)"><g><path d="M 9.234375 0 L 3.671875 0 L 3.671875 -28.203125 L 9.234375 -28.203125 Z M 9.234375 0 "/></g></g></g><g fill="#1f2937" fill-opacity="1"><g transform="translate(92.40201, 270.847417)"><g><path d="M 16.765625 0 L 10.03125 0 L 0.5 -28.203125 L 6.421875 -28.203125 L 13.265625 -7.171875 L 13.75 -7.171875 L 20.5 -28.203125 L 26.265625 -28.203125 Z M 16.765625 0 "/></g></g></g><g fill="#1f2937" fill-opacity="1"><g transform="translate(119.169723, 270.847417)"><g><path d="M 27.0625 0 L 21.203125 0 L 19.078125 -6.5 L 8.28125 -6.5 L 6.15625 0 L 0.421875 0 L 10.171875 -28.203125 L 17.3125 -28.203125 Z M 13.40625 -22.3125 L 9.78125 -11.1875 L 17.53125 -11.1875 L 13.890625 -22.3125 Z M 13.40625 -22.3125 "/></g></g></g><g fill="#1f2937" fill-opacity="1"><g transform="translate(146.650992, 270.847417)"><g><path d="M 9.0625 0 L 3.671875 0 L 3.671875 -28.203125 L 10.046875 -28.203125 L 21.375 -10.03125 L 21.875 -10.109375 L 21.875 -28.203125 L 27.234375 -28.203125 L 27.234375 0 L 21.53125 0 L 9.546875 -19.40625 L 9.0625 -19.328125 Z M 9.0625 0 "/></g></g></g><g fill="#1f2937" fill-opacity="1"><g transform="translate(177.565008, 270.847417)"><g><path d="M 27.0625 0 L 21.203125 0 L 19.078125 -6.5 L 8.28125 -6.5 L 6.15625 0 L 0.421875 0 L 10.171875 -28.203125 L 17.3125 -28.203125 Z M 13.40625 -22.3125 L 9.78125 -11.1875 L 17.53125 -11.1875 L 13.890625 -22.3125 Z M 13.40625 -22.3125 "/></g></g></g><g fill="#1f2937" fill-opacity="1"><g transform="translate(205.046277, 270.847417)"><g/></g></g><g fill="#1f2937" fill-opacity="1"><g transform="translate(214.360986, 270.847417)"><g><path d="M 13.8125 -28.203125 C 18.382812 -28.203125 21.875 -27.015625 24.28125 -24.640625 C 26.695312 -22.273438 27.90625 -18.757812 27.90625 -14.09375 C 27.90625 -9.4375 26.695312 -5.921875 24.28125 -3.546875 C 21.875 -1.179688 18.382812 0 13.8125 0 L 3.671875 0 L 3.671875 -28.203125 Z M 13.484375 -4.6875 C 16.390625 -4.6875 18.5625 -5.425781 20 -6.90625 C 21.4375 -8.394531 22.15625 -10.789062 22.15625 -14.09375 C 22.15625 -17.40625 21.4375 -19.800781 20 -21.28125 C 18.5625 -22.769531 16.390625 -23.515625 13.484375 -23.515625 L 9.234375 -23.515625 L 9.234375 -4.6875 Z M 13.484375 -4.6875 "/></g></g></g><g fill="#1f2937" fill-opacity="1"><g transform="translate(244.503599, 270.847417)"><g><path d="M 9.234375 -12.375 L 9.234375 -4.671875 L 22.703125 -4.671875 L 22.703125 0 L 3.671875 0 L 3.671875 -28.203125 L 22.390625 -28.203125 L 22.390625 -23.53125 L 9.234375 -23.53125 L 9.234375 -16.9375 L 20.734375 -16.9375 L 20.734375 -12.375 Z M 9.234375 -12.375 "/></g></g></g><g fill="#1f2937" fill-opacity="1"><g transform="translate(268.744972, 270.847417)"><g><path d="M 16.765625 0 L 10.03125 0 L 0.5 -28.203125 L 6.421875 -28.203125 L 13.265625 -7.171875 L 13.75 -7.171875 L 20.5 -28.203125 L 26.265625 -28.203125 Z M 16.765625 0 "/></g></g></g><g fill="#000000" fill-opacity="1"><g transform="translate(83.485585, 306.172661)"><g><path d="M 7.34375 -15.453125 C 8.90625 -15.453125 10.25 -15.171875 11.375 -14.609375 C 12.5 -14.054688 13.363281 -13.203125 13.96875 -12.046875 C 14.582031 -10.898438 14.890625 -9.460938 14.890625 -7.734375 C 14.890625 -5.992188 14.582031 -4.550781 13.96875 -3.40625 C 13.363281 -2.257812 12.5 -1.40625 11.375 -0.84375 C 10.25 -0.28125 8.90625 0 7.34375 0 L 2.34375 0 L 2.34375 -15.453125 Z M 7.15625 -1.546875 C 8.445312 -1.546875 9.515625 -1.742188 10.359375 -2.140625 C 11.203125 -2.546875 11.84375 -3.203125 12.28125 -4.109375 C 12.71875 -5.023438 12.9375 -6.234375 12.9375 -7.734375 C 12.9375 -9.242188 12.71875 -10.445312 12.28125 -11.34375 C 11.84375 -12.25 11.203125 -12.90625 10.359375 -13.3125 C 9.515625 -13.71875 8.445312 -13.921875 7.15625 -13.921875 L 4.15625 -13.921875 L 4.15625 -1.546875 Z M 7.15625 -1.546875 "/></g></g></g><g fill="#000000" fill-opacity="1"><g transform="translate(103.774841, 306.172661)"><g><path d="M 11.109375 -5.4375 L 3.09375 -5.4375 C 3.144531 -4.019531 3.484375 -2.976562 4.109375 -2.3125 C 4.742188 -1.65625 5.613281 -1.328125 6.71875 -1.328125 C 7.550781 -1.328125 8.21875 -1.472656 8.71875 -1.765625 C 9.226562 -2.054688 9.628906 -2.519531 9.921875 -3.15625 L 10.140625 -3.15625 L 11.265625 -2.5 C 10.921875 -1.65625 10.375 -0.988281 9.625 -0.5 C 8.882812 -0.0195312 7.914062 0.21875 6.71875 0.21875 C 5.582031 0.21875 4.609375 0 3.796875 -0.4375 C 2.992188 -0.882812 2.375 -1.554688 1.9375 -2.453125 C 1.5 -3.359375 1.28125 -4.484375 1.28125 -5.828125 C 1.28125 -7.148438 1.507812 -8.265625 1.96875 -9.171875 C 2.4375 -10.085938 3.066406 -10.769531 3.859375 -11.21875 C 4.660156 -11.664062 5.578125 -11.890625 6.609375 -11.890625 C 8.097656 -11.890625 9.265625 -11.46875 10.109375 -10.625 C 10.953125 -9.78125 11.375 -8.53125 11.375 -6.875 C 11.375 -6.226562 11.359375 -5.789062 11.328125 -5.5625 Z M 9.671875 -6.875 C 9.648438 -8.113281 9.375 -9.015625 8.84375 -9.578125 C 8.320312 -10.140625 7.578125 -10.421875 6.609375 -10.421875 C 5.585938 -10.421875 4.785156 -10.132812 4.203125 -9.5625 C 3.617188 -9 3.265625 -8.101562 3.140625 -6.875 Z M 9.671875 -6.875 "/></g></g></g><g fill="#000000" fill-opacity="1"><g transform="translate(120.066959, 306.172661)"><g><path d="M 5.3125 0.21875 C 4.582031 0.21875 3.90625 0.125 3.28125 -0.0625 C 2.65625 -0.257812 2.128906 -0.523438 1.703125 -0.859375 C 1.273438 -1.203125 0.972656 -1.585938 0.796875 -2.015625 L 1.8125 -3.0625 L 2.03125 -3.0625 C 2.40625 -2.488281 2.859375 -2.054688 3.390625 -1.765625 C 3.929688 -1.472656 4.570312 -1.328125 5.3125 -1.328125 C 6.175781 -1.328125 6.832031 -1.492188 7.28125 -1.828125 C 7.726562 -2.160156 7.953125 -2.625 7.953125 -3.21875 C 7.953125 -3.675781 7.816406 -4.054688 7.546875 -4.359375 C 7.273438 -4.660156 6.835938 -4.882812 6.234375 -5.03125 L 4.265625 -5.515625 C 3.210938 -5.773438 2.441406 -6.175781 1.953125 -6.71875 C 1.472656 -7.269531 1.234375 -7.953125 1.234375 -8.765625 C 1.234375 -9.398438 1.394531 -9.953125 1.71875 -10.421875 C 2.039062 -10.890625 2.507812 -11.25 3.125 -11.5 C 3.738281 -11.757812 4.460938 -11.890625 5.296875 -11.890625 C 6.367188 -11.890625 7.210938 -11.738281 7.828125 -11.4375 C 8.441406 -11.132812 8.925781 -10.71875 9.28125 -10.1875 L 8.296875 -9.234375 L 8.09375 -9.234375 C 7.71875 -9.660156 7.304688 -9.96875 6.859375 -10.15625 C 6.421875 -10.351562 5.898438 -10.453125 5.296875 -10.453125 C 4.523438 -10.453125 3.9375 -10.3125 3.53125 -10.03125 C 3.125 -9.757812 2.921875 -9.363281 2.921875 -8.84375 C 2.921875 -8.363281 3.0625 -7.976562 3.34375 -7.6875 C 3.632812 -7.40625 4.140625 -7.175781 4.859375 -7 L 6.796875 -6.53125 C 7.816406 -6.289062 8.550781 -5.890625 9 -5.328125 C 9.445312 -4.773438 9.671875 -4.082031 9.671875 -3.25 C 9.671875 -2.5625 9.507812 -1.957031 9.1875 -1.4375 C 8.863281 -0.914062 8.375 -0.507812 7.71875 -0.21875 C 7.0625 0.0703125 6.257812 0.21875 5.3125 0.21875 Z M 5.3125 0.21875 "/></g></g></g><g fill="#000000" fill-opacity="1"><g transform="translate(134.709466, 306.172661)"><g><path d="M 4.8125 0.21875 C 3.664062 0.21875 2.769531 -0.078125 2.125 -0.671875 C 1.476562 -1.273438 1.15625 -2.132812 1.15625 -3.25 C 1.15625 -3.9375 1.296875 -4.515625 1.578125 -4.984375 C 1.867188 -5.460938 2.3125 -5.851562 2.90625 -6.15625 C 3.507812 -6.457031 4.289062 -6.691406 5.25 -6.859375 C 6.101562 -6.992188 6.75 -7.148438 7.1875 -7.328125 C 7.625 -7.503906 7.914062 -7.703125 8.0625 -7.921875 C 8.21875 -8.140625 8.296875 -8.414062 8.296875 -8.75 C 8.296875 -9.269531 8.113281 -9.671875 7.75 -9.953125 C 7.394531 -10.242188 6.8125 -10.390625 6 -10.390625 C 5.25 -10.390625 4.601562 -10.238281 4.0625 -9.9375 C 3.519531 -9.644531 3.023438 -9.210938 2.578125 -8.640625 L 2.375 -8.640625 L 1.515625 -9.828125 C 2.015625 -10.460938 2.644531 -10.960938 3.40625 -11.328125 C 4.164062 -11.703125 5.03125 -11.890625 6 -11.890625 C 7.375 -11.890625 8.390625 -11.585938 9.046875 -10.984375 C 9.703125 -10.378906 10.03125 -9.546875 10.03125 -8.484375 L 10.03125 -2.296875 C 10.03125 -1.648438 10.300781 -1.328125 10.84375 -1.328125 C 11.03125 -1.328125 11.207031 -1.359375 11.375 -1.421875 L 11.53125 -1.375 L 11.734375 -0.1875 C 11.597656 -0.09375 11.425781 -0.0234375 11.21875 0.015625 C 11.007812 0.0546875 10.796875 0.078125 10.578125 0.078125 C 9.941406 0.078125 9.457031 -0.0625 9.125 -0.34375 C 8.800781 -0.625 8.59375 -1.039062 8.5 -1.59375 L 8.28125 -1.609375 C 7.945312 -0.992188 7.5 -0.535156 6.9375 -0.234375 C 6.375 0.0664062 5.664062 0.21875 4.8125 0.21875 Z M 5.1875 -1.15625 C 5.84375 -1.15625 6.40625 -1.300781 6.875 -1.59375 C 7.351562 -1.894531 7.71875 -2.316406 7.96875 -2.859375 C 8.226562 -3.410156 8.359375 -4.039062 8.359375 -4.75 L 8.359375 -6.234375 L 8.15625 -6.265625 C 7.894531 -6.085938 7.578125 -5.9375 7.203125 -5.8125 C 6.828125 -5.6875 6.304688 -5.578125 5.640625 -5.484375 C 4.960938 -5.390625 4.421875 -5.242188 4.015625 -5.046875 C 3.617188 -4.859375 3.335938 -4.617188 3.171875 -4.328125 C 3.003906 -4.035156 2.921875 -3.675781 2.921875 -3.25 C 2.921875 -2.5625 3.117188 -2.039062 3.515625 -1.6875 C 3.921875 -1.332031 4.476562 -1.15625 5.1875 -1.15625 Z M 5.1875 -1.15625 "/></g></g></g><g fill="#000000" fill-opacity="1"><g transform="translate(150.631476, 306.172661)"><g><path d="M 2.03125 0 L 2.03125 -11.65625 L 3.671875 -11.65625 L 3.671875 -9.828125 L 3.890625 -9.78125 C 4.429688 -11.101562 5.453125 -11.765625 6.953125 -11.765625 C 7.753906 -11.765625 8.351562 -11.617188 8.75 -11.328125 L 8.296875 -9.875 L 8.09375 -9.828125 C 7.65625 -10.046875 7.175781 -10.15625 6.65625 -10.15625 C 5.71875 -10.15625 5 -9.804688 4.5 -9.109375 C 4 -8.410156 3.75 -7.28125 3.75 -5.71875 L 3.75 0 Z M 2.03125 0 "/></g></g></g><g fill="#000000" fill-opacity="1"><g transform="translate(163.497474, 306.172661)"><g><path d="M 2.03125 0 L 2.03125 -11.65625 L 3.671875 -11.65625 L 3.671875 -9.828125 L 3.890625 -9.78125 C 4.429688 -11.101562 5.453125 -11.765625 6.953125 -11.765625 C 7.753906 -11.765625 8.351562 -11.617188 8.75 -11.328125 L 8.296875 -9.875 L 8.09375 -9.828125 C 7.65625 -10.046875 7.175781 -10.15625 6.65625 -10.15625 C 5.71875 -10.15625 5 -9.804688 4.5 -9.109375 C 4 -8.410156 3.75 -7.28125 3.75 -5.71875 L 3.75 0 Z M 2.03125 0 "/></g></g></g><g fill="#000000" fill-opacity="1"><g transform="translate(176.363471, 306.172661)"><g><path d="M 6.6875 0.21875 C 5.59375 0.21875 4.632812 -0.0078125 3.8125 -0.46875 C 3 -0.9375 2.375 -1.625 1.9375 -2.53125 C 1.5 -3.4375 1.28125 -4.535156 1.28125 -5.828125 C 1.28125 -7.117188 1.5 -8.21875 1.9375 -9.125 C 2.375 -10.03125 3 -10.71875 3.8125 -11.1875 C 4.632812 -11.65625 5.59375 -11.890625 6.6875 -11.890625 C 7.789062 -11.890625 8.75 -11.65625 9.5625 -11.1875 C 10.375 -10.71875 11 -10.03125 11.4375 -9.125 C 11.882812 -8.21875 12.109375 -7.117188 12.109375 -5.828125 C 12.109375 -4.535156 11.882812 -3.4375 11.4375 -2.53125 C 11 -1.625 10.375 -0.9375 9.5625 -0.46875 C 8.75 -0.0078125 7.789062 0.21875 6.6875 0.21875 Z M 6.6875 -1.328125 C 7.851562 -1.328125 8.742188 -1.691406 9.359375 -2.421875 C 9.972656 -3.148438 10.28125 -4.285156 10.28125 -5.828125 C 10.28125 -7.367188 9.972656 -8.503906 9.359375 -9.234375 C 8.742188 -9.972656 7.851562 -10.34375 6.6875 -10.34375 C 5.53125 -10.34375 4.640625 -9.972656 4.015625 -9.234375 C 3.398438 -8.492188 3.09375 -7.359375 3.09375 -5.828125 C 3.09375 -4.285156 3.398438 -3.148438 4.015625 -2.421875 C 4.640625 -1.691406 5.53125 -1.328125 6.6875 -1.328125 Z M 6.6875 -1.328125 "/></g></g></g><g fill="#000000" fill-opacity="1"><g transform="translate(193.607287, 306.172661)"><g><path d="M 4.640625 0.21875 C 3.816406 0.21875 3.164062 -0.015625 2.6875 -0.484375 C 2.21875 -0.953125 1.984375 -1.648438 1.984375 -2.578125 L 1.984375 -16.34375 L 3.71875 -16.34375 L 3.71875 -2.703125 C 3.71875 -2.210938 3.804688 -1.859375 3.984375 -1.640625 C 4.171875 -1.429688 4.460938 -1.328125 4.859375 -1.328125 C 5.097656 -1.328125 5.34375 -1.363281 5.59375 -1.4375 L 5.734375 -1.390625 L 5.9375 -0.046875 C 5.8125 0.0351562 5.628906 0.0976562 5.390625 0.140625 C 5.160156 0.191406 4.910156 0.21875 4.640625 0.21875 Z M 4.640625 0.21875 "/></g></g></g><g fill="#000000" fill-opacity="1"><g transform="translate(203.808525, 306.172661)"><g><path d="M 4.640625 0.21875 C 3.816406 0.21875 3.164062 -0.015625 2.6875 -0.484375 C 2.21875 -0.953125 1.984375 -1.648438 1.984375 -2.578125 L 1.984375 -16.34375 L 3.71875 -16.34375 L 3.71875 -2.703125 C 3.71875 -2.210938 3.804688 -1.859375 3.984375 -1.640625 C 4.171875 -1.429688 4.460938 -1.328125 4.859375 -1.328125 C 5.097656 -1.328125 5.34375 -1.363281 5.59375 -1.4375 L 5.734375 -1.390625 L 5.9375 -0.046875 C 5.8125 0.0351562 5.628906 0.0976562 5.390625 0.140625 C 5.160156 0.191406 4.910156 0.21875 4.640625 0.21875 Z M 4.640625 0.21875 "/></g></g></g><g fill="#000000" fill-opacity="1"><g transform="translate(214.009764, 306.172661)"><g><path d="M 6.6875 0.21875 C 5.59375 0.21875 4.632812 -0.0078125 3.8125 -0.46875 C 3 -0.9375 2.375 -1.625 1.9375 -2.53125 C 1.5 -3.4375 1.28125 -4.535156 1.28125 -5.828125 C 1.28125 -7.117188 1.5 -8.21875 1.9375 -9.125 C 2.375 -10.03125 3 -10.71875 3.8125 -11.1875 C 4.632812 -11.65625 5.59375 -11.890625 6.6875 -11.890625 C 7.789062 -11.890625 8.75 -11.65625 9.5625 -11.1875 C 10.375 -10.71875 11 -10.03125 11.4375 -9.125 C 11.882812 -8.21875 12.109375 -7.117188 12.109375 -5.828125 C 12.109375 -4.535156 11.882812 -3.4375 11.4375 -2.53125 C 11 -1.625 10.375 -0.9375 9.5625 -0.46875 C 8.75 -0.0078125 7.789062 0.21875 6.6875 0.21875 Z M 6.6875 -1.328125 C 7.851562 -1.328125 8.742188 -1.691406 9.359375 -2.421875 C 9.972656 -3.148438 10.28125 -4.285156 10.28125 -5.828125 C 10.28125 -7.367188 9.972656 -8.503906 9.359375 -9.234375 C 8.742188 -9.972656 7.851562 -10.34375 6.6875 -10.34375 C 5.53125 -10.34375 4.640625 -9.972656 4.015625 -9.234375 C 3.398438 -8.492188 3.09375 -7.359375 3.09375 -5.828125 C 3.09375 -4.285156 3.398438 -3.148438 4.015625 -2.421875 C 4.640625 -1.691406 5.53125 -1.328125 6.6875 -1.328125 Z M 6.6875 -1.328125 "/></g></g></g><g fill="#000000" fill-opacity="1"><g transform="translate(231.253587, 306.172661)"><g/></g></g><g fill="#000000" fill-opacity="1"><g transform="translate(240.418538, 306.172661)"><g><path d="M 5.78125 0 L 3.609375 0 L 0.75 -11.65625 L 2.453125 -11.65625 L 4.65625 -2.015625 L 4.890625 -2.015625 L 7.609375 -11.65625 L 9.40625 -11.65625 L 12.21875 -2.015625 L 12.4375 -2.015625 L 14.609375 -11.65625 L 16.25 -11.65625 L 13.421875 0 L 11.234375 0 L 8.578125 -9.046875 L 8.359375 -9.046875 Z M 5.78125 0 "/></g></g></g><g fill="#000000" fill-opacity="1"><g transform="translate(261.278819, 306.172661)"><g><path d="M 11.109375 -5.4375 L 3.09375 -5.4375 C 3.144531 -4.019531 3.484375 -2.976562 4.109375 -2.3125 C 4.742188 -1.65625 5.613281 -1.328125 6.71875 -1.328125 C 7.550781 -1.328125 8.21875 -1.472656 8.71875 -1.765625 C 9.226562 -2.054688 9.628906 -2.519531 9.921875 -3.15625 L 10.140625 -3.15625 L 11.265625 -2.5 C 10.921875 -1.65625 10.375 -0.988281 9.625 -0.5 C 8.882812 -0.0195312 7.914062 0.21875 6.71875 0.21875 C 5.582031 0.21875 4.609375 0 3.796875 -0.4375 C 2.992188 -0.882812 2.375 -1.554688 1.9375 -2.453125 C 1.5 -3.359375 1.28125 -4.484375 1.28125 -5.828125 C 1.28125 -7.148438 1.507812 -8.265625 1.96875 -9.171875 C 2.4375 -10.085938 3.066406 -10.769531 3.859375 -11.21875 C 4.660156 -11.664062 5.578125 -11.890625 6.609375 -11.890625 C 8.097656 -11.890625 9.265625 -11.46875 10.109375 -10.625 C 10.953125 -9.78125 11.375 -8.53125 11.375 -6.875 C 11.375 -6.226562 11.359375 -5.789062 11.328125 -5.5625 Z M 9.671875 -6.875 C 9.648438 -8.113281 9.375 -9.015625 8.84375 -9.578125 C 8.320312 -10.140625 7.578125 -10.421875 6.609375 -10.421875 C 5.585938 -10.421875 4.785156 -10.132812 4.203125 -9.5625 C 3.617188 -9 3.265625 -8.101562 3.140625 -6.875 Z M 9.671875 -6.875 "/></g></g></g><g fill="#000000" fill-opacity="1"><g transform="translate(277.570943, 306.172661)"><g><path d="M 7.75 0.21875 C 6.882812 0.21875 6.128906 0.0507812 5.484375 -0.28125 C 4.847656 -0.613281 4.34375 -1.054688 3.96875 -1.609375 L 3.75 -1.5625 L 3.75 0 L 2.03125 0 L 2.03125 -16.34375 L 3.75 -16.34375 L 3.75 -9.921875 L 3.96875 -9.875 C 4.863281 -11.21875 6.15625 -11.890625 7.84375 -11.890625 C 8.800781 -11.890625 9.640625 -11.664062 10.359375 -11.21875 C 11.078125 -10.769531 11.632812 -10.09375 12.03125 -9.1875 C 12.4375 -8.28125 12.640625 -7.160156 12.640625 -5.828125 C 12.640625 -4.503906 12.425781 -3.390625 12 -2.484375 C 11.582031 -1.578125 11.003906 -0.898438 10.265625 -0.453125 C 9.535156 -0.00390625 8.695312 0.21875 7.75 0.21875 Z M 7.34375 -1.328125 C 9.664062 -1.328125 10.828125 -2.828125 10.828125 -5.828125 C 10.828125 -7.378906 10.523438 -8.519531 9.921875 -9.25 C 9.316406 -9.976562 8.457031 -10.34375 7.34375 -10.34375 C 6.25 -10.34375 5.375 -9.96875 4.71875 -9.21875 C 4.070312 -8.476562 3.75 -7.347656 3.75 -5.828125 C 3.75 -4.304688 4.070312 -3.175781 4.71875 -2.4375 C 5.375 -1.695312 6.25 -1.328125 7.34375 -1.328125 Z M 7.34375 -1.328125 "/></g></g></g></svg>