<svg xmlns="http://www.w3.org/2000/svg" xmlns:xlink="http://www.w3.org/1999/xlink" width="500" zoomAndPan="magnify" viewBox="0 0 375 374.999991" height="500" preserveAspectRatio="xMidYMid meet" version="1.0"><defs><g/><clipPath id="b52590402b"><path d="M 12.5 24.039062 L 362.5 24.039062 L 362.5 359.617188 L 12.5 359.617188 Z M 12.5 24.039062 " clip-rule="nonzero"/></clipPath><clipPath id="2375284ccc"><path d="M 187.5 24.039062 C 90.851562 24.039062 12.5 99.160156 12.5 191.828125 C 12.5 284.492188 90.851562 359.617188 187.5 359.617188 C 284.148438 359.617188 362.5 284.492188 362.5 191.828125 C 362.5 99.160156 284.148438 24.039062 187.5 24.039062 Z M 187.5 24.039062 " clip-rule="nonzero"/></clipPath><clipPath id="cb3296fd34"><path d="M 128.148438 62.3125 L 267.648438 62.3125 L 267.648438 221 L 128.148438 221 Z M 128.148438 62.3125 " clip-rule="nonzero"/></clipPath><clipPath id="486d57d70c"><path d="M 128.148438 182 L 169 182 L 169 222.0625 L 128.148438 222.0625 Z M 128.148438 182 " clip-rule="nonzero"/></clipPath></defs><g clip-path="url(#b52590402b)"><g clip-path="url(#2375284ccc)"><path fill="#fbfaf9" d="M 12.5 24.039062 L 362.5 24.039062 L 362.5 359.617188 L 12.5 359.617188 Z M 12.5 24.039062 " fill-opacity="1" fill-rule="nonzero"/></g></g><g clip-path="url(#cb3296fd34)"><path fill="#000000" d="M 184.789062 62.3125 L 128.171875 62.3125 L 128.171875 147.609375 L 168.851562 147.609375 L 168.851562 101.566406 L 185.417969 101.566406 C 209.742188 101.566406 225.886719 116.398438 225.886719 141.960938 L 225.886719 142.417969 C 225.886719 160.863281 217.625 173.585938 204.019531 179.335938 L 204.019531 220.261719 C 244.507812 212.652344 267.613281 181.644531 267.613281 141.734375 L 267.613281 141.277344 C 267.613281 95.175781 237.210938 62.3125 184.789062 62.3125 " fill-opacity="1" fill-rule="nonzero"/></g><g clip-path="url(#486d57d70c)"><path fill="#ed1d27" d="M 168.851562 182.8125 L 128.171875 182.8125 L 128.171875 222.066406 L 168.851562 222.066406 L 168.851562 182.8125 " fill-opacity="1" fill-rule="nonzero"/></g><g fill="#000000" fill-opacity="1"><g transform="translate(95.505944, 263.948875)"><g><path d="M 6.6875 0 L 3.75 0 L 3.75 -24.84375 L 6.6875 -24.84375 Z M 6.6875 0 "/></g></g></g><g fill="#000000" fill-opacity="1"><g transform="translate(105.957546, 263.948875)"><g><path d="M 13.53125 0 L 9.6875 0 L 1.078125 -24.84375 L 4.1875 -24.84375 L 11.46875 -3.65625 L 11.90625 -3.65625 L 19.109375 -24.84375 L 22.171875 -24.84375 Z M 13.53125 0 "/></g></g></g><g fill="#000000" fill-opacity="1"><g transform="translate(129.171999, 263.948875)"><g><path d="M 22.375 0 L 19.234375 0 L 16.953125 -6.8125 L 6.359375 -6.8125 L 4.046875 0 L 0.984375 0 L 9.65625 -24.84375 L 13.703125 -24.84375 Z M 11.4375 -21.84375 L 7.171875 -9.265625 L 16.109375 -9.265625 L 11.859375 -21.84375 Z M 11.4375 -21.84375 "/></g></g></g><g fill="#000000" fill-opacity="1"><g transform="translate(152.522409, 263.948875)"><g><path d="M 6.609375 0 L 3.75 0 L 3.75 -24.84375 L 7.34375 -24.84375 L 19.46875 -5.859375 L 19.890625 -5.9375 L 19.890625 -24.84375 L 22.734375 -24.84375 L 22.734375 0 L 19.671875 0 L 7.03125 -20.3125 L 6.609375 -20.25 Z M 6.609375 0 "/></g></g></g><g fill="#000000" fill-opacity="1"><g transform="translate(179.016795, 263.948875)"><g><path d="M 22.375 0 L 19.234375 0 L 16.953125 -6.8125 L 6.359375 -6.8125 L 4.046875 0 L 0.984375 0 L 9.65625 -24.84375 L 13.703125 -24.84375 Z M 11.4375 -21.84375 L 7.171875 -9.265625 L 16.109375 -9.265625 L 11.859375 -21.84375 Z M 11.4375 -21.84375 "/></g></g></g><g fill="#000000" fill-opacity="1"><g transform="translate(202.367204, 263.948875)"><g/></g></g><g fill="#000000" fill-opacity="1"><g transform="translate(210.898431, 263.948875)"><g><path d="M 11.796875 -24.84375 C 14.316406 -24.84375 16.476562 -24.394531 18.28125 -23.5 C 20.09375 -22.601562 21.488281 -21.226562 22.46875 -19.375 C 23.445312 -17.53125 23.9375 -15.210938 23.9375 -12.421875 C 23.9375 -9.640625 23.445312 -7.320312 22.46875 -5.46875 C 21.488281 -3.625 20.09375 -2.25 18.28125 -1.34375 C 16.476562 -0.445312 14.316406 0 11.796875 0 L 3.75 0 L 3.75 -24.84375 Z M 11.515625 -2.484375 C 13.585938 -2.484375 15.300781 -2.804688 16.65625 -3.453125 C 18.019531 -4.097656 19.050781 -5.148438 19.75 -6.609375 C 20.457031 -8.078125 20.8125 -10.015625 20.8125 -12.421875 C 20.8125 -14.847656 20.457031 -16.789062 19.75 -18.25 C 19.050781 -19.707031 18.019531 -20.757812 16.65625 -21.40625 C 15.300781 -22.050781 13.585938 -22.375 11.515625 -22.375 L 6.6875 -22.375 L 6.6875 -2.484375 Z M 11.515625 -2.484375 "/></g></g></g><g fill="#000000" fill-opacity="1"><g transform="translate(237.307845, 263.948875)"><g><path d="M 6.6875 -11.71875 L 6.6875 -2.40625 L 19.34375 -2.40625 L 19.34375 0 L 3.75 0 L 3.75 -24.84375 L 19.078125 -24.84375 L 19.078125 -22.4375 L 6.6875 -22.4375 L 6.6875 -14.125 L 17.609375 -14.125 L 17.609375 -11.71875 Z M 6.6875 -11.71875 "/></g></g></g><g fill="#000000" fill-opacity="1"><g transform="translate(258.296023, 263.948875)"><g><path d="M 13.53125 0 L 9.6875 0 L 1.078125 -24.84375 L 4.1875 -24.84375 L 11.46875 -3.65625 L 11.90625 -3.65625 L 19.109375 -24.84375 L 22.171875 -24.84375 Z M 13.53125 0 "/></g></g></g><g fill="#000000" fill-opacity="1"><g transform="translate(81.651656, 293.226456)"><g><path d="M 7.546875 -15.890625 C 9.148438 -15.890625 10.53125 -15.597656 11.6875 -15.015625 C 12.84375 -14.441406 13.734375 -13.5625 14.359375 -12.375 C 14.984375 -11.195312 15.296875 -9.71875 15.296875 -7.9375 C 15.296875 -6.15625 14.984375 -4.675781 14.359375 -3.5 C 13.734375 -2.320312 12.84375 -1.441406 11.6875 -0.859375 C 10.53125 -0.285156 9.148438 0 7.546875 0 L 2.40625 0 L 2.40625 -15.890625 Z M 7.359375 -1.59375 C 8.679688 -1.59375 9.773438 -1.796875 10.640625 -2.203125 C 11.515625 -2.617188 12.175781 -3.289062 12.625 -4.21875 C 13.070312 -5.15625 13.296875 -6.394531 13.296875 -7.9375 C 13.296875 -9.488281 13.070312 -10.726562 12.625 -11.65625 C 12.175781 -12.59375 11.515625 -13.265625 10.640625 -13.671875 C 9.773438 -14.085938 8.679688 -14.296875 7.359375 -14.296875 L 4.265625 -14.296875 L 4.265625 -1.59375 Z M 7.359375 -1.59375 "/></g></g></g><g fill="#000000" fill-opacity="1"><g transform="translate(102.490168, 293.226456)"><g><path d="M 11.421875 -5.578125 L 3.1875 -5.578125 C 3.238281 -4.128906 3.585938 -3.0625 4.234375 -2.375 C 4.878906 -1.695312 5.769531 -1.359375 6.90625 -1.359375 C 7.757812 -1.359375 8.445312 -1.507812 8.96875 -1.8125 C 9.488281 -2.113281 9.894531 -2.59375 10.1875 -3.25 L 10.421875 -3.25 L 11.578125 -2.5625 C 11.222656 -1.695312 10.660156 -1.015625 9.890625 -0.515625 C 9.128906 -0.015625 8.132812 0.234375 6.90625 0.234375 C 5.738281 0.234375 4.738281 0.00390625 3.90625 -0.453125 C 3.070312 -0.910156 2.429688 -1.601562 1.984375 -2.53125 C 1.535156 -3.457031 1.3125 -4.609375 1.3125 -5.984375 C 1.3125 -7.347656 1.546875 -8.492188 2.015625 -9.421875 C 2.492188 -10.359375 3.144531 -11.054688 3.96875 -11.515625 C 4.789062 -11.984375 5.734375 -12.21875 6.796875 -12.21875 C 8.328125 -12.21875 9.519531 -11.78125 10.375 -10.90625 C 11.238281 -10.039062 11.675781 -8.757812 11.6875 -7.0625 C 11.6875 -6.394531 11.671875 -5.945312 11.640625 -5.71875 Z M 9.9375 -7.0625 C 9.90625 -8.332031 9.625 -9.257812 9.09375 -9.84375 C 8.5625 -10.425781 7.796875 -10.71875 6.796875 -10.71875 C 5.742188 -10.71875 4.914062 -10.425781 4.3125 -9.84375 C 3.71875 -9.257812 3.359375 -8.332031 3.234375 -7.0625 Z M 9.9375 -7.0625 "/></g></g></g><g fill="#000000" fill-opacity="1"><g transform="translate(119.223433, 293.226456)"><g><path d="M 5.46875 0.234375 C 4.707031 0.234375 4.003906 0.132812 3.359375 -0.0625 C 2.722656 -0.269531 2.1875 -0.546875 1.75 -0.890625 C 1.3125 -1.234375 1 -1.625 0.8125 -2.0625 L 1.859375 -3.15625 L 2.09375 -3.15625 C 2.476562 -2.5625 2.945312 -2.113281 3.5 -1.8125 C 4.050781 -1.507812 4.707031 -1.359375 5.46875 -1.359375 C 6.351562 -1.359375 7.023438 -1.53125 7.484375 -1.875 C 7.941406 -2.21875 8.171875 -2.695312 8.171875 -3.3125 C 8.171875 -3.78125 8.03125 -4.164062 7.75 -4.46875 C 7.46875 -4.78125 7.019531 -5.015625 6.40625 -5.171875 L 4.375 -5.671875 C 3.300781 -5.929688 2.515625 -6.34375 2.015625 -6.90625 C 1.515625 -7.46875 1.265625 -8.164062 1.265625 -9 C 1.265625 -9.65625 1.429688 -10.222656 1.765625 -10.703125 C 2.097656 -11.179688 2.578125 -11.550781 3.203125 -11.8125 C 3.835938 -12.082031 4.582031 -12.21875 5.4375 -12.21875 C 6.539062 -12.21875 7.410156 -12.0625 8.046875 -11.75 C 8.679688 -11.4375 9.175781 -11.007812 9.53125 -10.46875 L 8.53125 -9.484375 L 8.3125 -9.484375 C 7.925781 -9.921875 7.503906 -10.238281 7.046875 -10.4375 C 6.597656 -10.632812 6.0625 -10.734375 5.4375 -10.734375 C 4.65625 -10.734375 4.050781 -10.59375 3.625 -10.3125 C 3.207031 -10.03125 3 -9.617188 3 -9.078125 C 3 -8.597656 3.144531 -8.207031 3.4375 -7.90625 C 3.738281 -7.613281 4.257812 -7.375 5 -7.1875 L 6.984375 -6.71875 C 8.023438 -6.46875 8.773438 -6.054688 9.234375 -5.484375 C 9.703125 -4.910156 9.9375 -4.191406 9.9375 -3.328125 C 9.9375 -2.628906 9.769531 -2.007812 9.4375 -1.46875 C 9.101562 -0.9375 8.597656 -0.519531 7.921875 -0.21875 C 7.253906 0.0820312 6.4375 0.234375 5.46875 0.234375 Z M 5.46875 0.234375 "/></g></g></g><g fill="#000000" fill-opacity="1"><g transform="translate(134.262471, 293.226456)"><g><path d="M 4.9375 0.234375 C 3.757812 0.234375 2.835938 -0.0703125 2.171875 -0.6875 C 1.515625 -1.3125 1.1875 -2.191406 1.1875 -3.328125 C 1.1875 -4.046875 1.332031 -4.644531 1.625 -5.125 C 1.914062 -5.613281 2.367188 -6.015625 2.984375 -6.328125 C 3.597656 -6.640625 4.40625 -6.878906 5.40625 -7.046875 C 6.269531 -7.179688 6.925781 -7.335938 7.375 -7.515625 C 7.832031 -7.703125 8.140625 -7.90625 8.296875 -8.125 C 8.453125 -8.351562 8.53125 -8.640625 8.53125 -8.984375 C 8.53125 -9.523438 8.34375 -9.941406 7.96875 -10.234375 C 7.59375 -10.523438 6.992188 -10.671875 6.171875 -10.671875 C 5.398438 -10.671875 4.734375 -10.519531 4.171875 -10.21875 C 3.617188 -9.914062 3.113281 -9.46875 2.65625 -8.875 L 2.4375 -8.875 L 1.5625 -10.109375 C 2.070312 -10.753906 2.71875 -11.265625 3.5 -11.640625 C 4.28125 -12.023438 5.171875 -12.21875 6.171875 -12.21875 C 7.585938 -12.21875 8.628906 -11.90625 9.296875 -11.28125 C 9.960938 -10.664062 10.296875 -9.8125 10.296875 -8.71875 L 10.296875 -2.359375 C 10.296875 -1.691406 10.578125 -1.359375 11.140625 -1.359375 C 11.328125 -1.359375 11.507812 -1.390625 11.6875 -1.453125 L 11.84375 -1.40625 L 12.046875 -0.1875 C 11.921875 -0.09375 11.75 -0.0234375 11.53125 0.015625 C 11.320312 0.0664062 11.101562 0.09375 10.875 0.09375 C 10.21875 0.09375 9.71875 -0.0507812 9.375 -0.34375 C 9.039062 -0.632812 8.828125 -1.0625 8.734375 -1.625 L 8.5 -1.65625 C 8.164062 -1.019531 7.707031 -0.546875 7.125 -0.234375 C 6.550781 0.078125 5.820312 0.234375 4.9375 0.234375 Z M 5.328125 -1.1875 C 5.992188 -1.1875 6.570312 -1.335938 7.0625 -1.640625 C 7.550781 -1.953125 7.925781 -2.382812 8.1875 -2.9375 C 8.445312 -3.5 8.578125 -4.144531 8.578125 -4.875 L 8.578125 -6.40625 L 8.375 -6.4375 C 8.101562 -6.25 7.773438 -6.09375 7.390625 -5.96875 C 7.015625 -5.84375 6.484375 -5.726562 5.796875 -5.625 C 5.097656 -5.53125 4.539062 -5.382812 4.125 -5.1875 C 3.71875 -5 3.425781 -4.753906 3.25 -4.453125 C 3.082031 -4.148438 3 -3.773438 3 -3.328125 C 3 -2.628906 3.203125 -2.097656 3.609375 -1.734375 C 4.023438 -1.367188 4.597656 -1.1875 5.328125 -1.1875 Z M 5.328125 -1.1875 "/></g></g></g><g fill="#000000" fill-opacity="1"><g transform="translate(150.61562, 293.226456)"><g><path d="M 2.09375 0 L 2.09375 -11.984375 L 3.765625 -11.984375 L 3.765625 -10.109375 L 4 -10.046875 C 4.550781 -11.410156 5.601562 -12.09375 7.15625 -12.09375 C 7.96875 -12.09375 8.578125 -11.941406 8.984375 -11.640625 L 8.53125 -10.140625 L 8.3125 -10.109375 C 7.863281 -10.328125 7.367188 -10.4375 6.828125 -10.4375 C 5.878906 -10.4375 5.144531 -10.078125 4.625 -9.359375 C 4.113281 -8.648438 3.859375 -7.488281 3.859375 -5.875 L 3.859375 0 Z M 2.09375 0 "/></g></g></g><g fill="#000000" fill-opacity="1"><g transform="translate(163.8301, 293.226456)"><g><path d="M 2.09375 0 L 2.09375 -11.984375 L 3.765625 -11.984375 L 3.765625 -10.109375 L 4 -10.046875 C 4.550781 -11.410156 5.601562 -12.09375 7.15625 -12.09375 C 7.96875 -12.09375 8.578125 -11.941406 8.984375 -11.640625 L 8.53125 -10.140625 L 8.3125 -10.109375 C 7.863281 -10.328125 7.367188 -10.4375 6.828125 -10.4375 C 5.878906 -10.4375 5.144531 -10.078125 4.625 -9.359375 C 4.113281 -8.648438 3.859375 -7.488281 3.859375 -5.875 L 3.859375 0 Z M 2.09375 0 "/></g></g></g><g fill="#000000" fill-opacity="1"><g transform="translate(177.04458, 293.226456)"><g><path d="M 6.875 0.234375 C 5.75 0.234375 4.765625 -0.00390625 3.921875 -0.484375 C 3.085938 -0.960938 2.441406 -1.664062 1.984375 -2.59375 C 1.535156 -3.53125 1.3125 -4.660156 1.3125 -5.984375 C 1.3125 -7.304688 1.535156 -8.4375 1.984375 -9.375 C 2.441406 -10.3125 3.085938 -11.019531 3.921875 -11.5 C 4.765625 -11.976562 5.75 -12.21875 6.875 -12.21875 C 8.007812 -12.21875 8.992188 -11.976562 9.828125 -11.5 C 10.660156 -11.019531 11.300781 -10.3125 11.75 -9.375 C 12.207031 -8.4375 12.4375 -7.304688 12.4375 -5.984375 C 12.4375 -4.660156 12.207031 -3.53125 11.75 -2.59375 C 11.300781 -1.664062 10.660156 -0.960938 9.828125 -0.484375 C 8.992188 -0.00390625 8.007812 0.234375 6.875 0.234375 Z M 6.875 -1.359375 C 8.070312 -1.359375 8.988281 -1.734375 9.625 -2.484375 C 10.257812 -3.242188 10.578125 -4.410156 10.578125 -5.984375 C 10.578125 -7.566406 10.257812 -8.734375 9.625 -9.484375 C 8.988281 -10.242188 8.070312 -10.625 6.875 -10.625 C 5.675781 -10.625 4.757812 -10.242188 4.125 -9.484375 C 3.488281 -8.734375 3.171875 -7.566406 3.171875 -5.984375 C 3.171875 -4.410156 3.488281 -3.242188 4.125 -2.484375 C 4.757812 -1.734375 5.675781 -1.359375 6.875 -1.359375 Z M 6.875 -1.359375 "/></g></g></g><g fill="#000000" fill-opacity="1"><g transform="translate(194.75529, 293.226456)"><g><path d="M 4.765625 0.234375 C 3.921875 0.234375 3.253906 -0.00390625 2.765625 -0.484375 C 2.285156 -0.972656 2.046875 -1.695312 2.046875 -2.65625 L 2.046875 -16.796875 L 3.8125 -16.796875 L 3.8125 -2.765625 C 3.8125 -2.265625 3.90625 -1.90625 4.09375 -1.6875 C 4.289062 -1.46875 4.59375 -1.359375 5 -1.359375 C 5.238281 -1.359375 5.488281 -1.398438 5.75 -1.484375 L 5.90625 -1.4375 L 6.109375 -0.046875 C 5.972656 0.046875 5.785156 0.113281 5.546875 0.15625 C 5.304688 0.207031 5.046875 0.234375 4.765625 0.234375 Z M 4.765625 0.234375 "/></g></g></g><g fill="#000000" fill-opacity="1"><g transform="translate(205.232939, 293.226456)"><g><path d="M 4.765625 0.234375 C 3.921875 0.234375 3.253906 -0.00390625 2.765625 -0.484375 C 2.285156 -0.972656 2.046875 -1.695312 2.046875 -2.65625 L 2.046875 -16.796875 L 3.8125 -16.796875 L 3.8125 -2.765625 C 3.8125 -2.265625 3.90625 -1.90625 4.09375 -1.6875 C 4.289062 -1.46875 4.59375 -1.359375 5 -1.359375 C 5.238281 -1.359375 5.488281 -1.398438 5.75 -1.484375 L 5.90625 -1.4375 L 6.109375 -0.046875 C 5.972656 0.046875 5.785156 0.113281 5.546875 0.15625 C 5.304688 0.207031 5.046875 0.234375 4.765625 0.234375 Z M 4.765625 0.234375 "/></g></g></g><g fill="#000000" fill-opacity="1"><g transform="translate(215.710588, 293.226456)"><g><path d="M 6.875 0.234375 C 5.75 0.234375 4.765625 -0.00390625 3.921875 -0.484375 C 3.085938 -0.960938 2.441406 -1.664062 1.984375 -2.59375 C 1.535156 -3.53125 1.3125 -4.660156 1.3125 -5.984375 C 1.3125 -7.304688 1.535156 -8.4375 1.984375 -9.375 C 2.441406 -10.3125 3.085938 -11.019531 3.921875 -11.5 C 4.765625 -11.976562 5.75 -12.21875 6.875 -12.21875 C 8.007812 -12.21875 8.992188 -11.976562 9.828125 -11.5 C 10.660156 -11.019531 11.300781 -10.3125 11.75 -9.375 C 12.207031 -8.4375 12.4375 -7.304688 12.4375 -5.984375 C 12.4375 -4.660156 12.207031 -3.53125 11.75 -2.59375 C 11.300781 -1.664062 10.660156 -0.960938 9.828125 -0.484375 C 8.992188 -0.00390625 8.007812 0.234375 6.875 0.234375 Z M 6.875 -1.359375 C 8.070312 -1.359375 8.988281 -1.734375 9.625 -2.484375 C 10.257812 -3.242188 10.578125 -4.410156 10.578125 -5.984375 C 10.578125 -7.566406 10.257812 -8.734375 9.625 -9.484375 C 8.988281 -10.242188 8.070312 -10.625 6.875 -10.625 C 5.675781 -10.625 4.757812 -10.242188 4.125 -9.484375 C 3.488281 -8.734375 3.171875 -7.566406 3.171875 -5.984375 C 3.171875 -4.410156 3.488281 -3.242188 4.125 -2.484375 C 4.757812 -1.734375 5.675781 -1.359375 6.875 -1.359375 Z M 6.875 -1.359375 "/></g></g></g><g fill="#000000" fill-opacity="1"><g transform="translate(233.421291, 293.226456)"><g/></g></g><g fill="#000000" fill-opacity="1"><g transform="translate(242.834617, 293.226456)"><g><path d="M 5.9375 0 L 3.703125 0 L 0.765625 -11.984375 L 2.515625 -11.984375 L 4.796875 -2.0625 L 5.015625 -2.0625 L 7.8125 -11.984375 L 9.671875 -11.984375 L 12.546875 -2.0625 L 12.78125 -2.0625 L 15 -11.984375 L 16.703125 -11.984375 L 13.796875 0 L 11.546875 0 L 8.8125 -9.296875 L 8.578125 -9.296875 Z M 5.9375 0 "/></g></g></g><g fill="#000000" fill-opacity="1"><g transform="translate(264.259592, 293.226456)"><g><path d="M 11.421875 -5.578125 L 3.1875 -5.578125 C 3.238281 -4.128906 3.585938 -3.0625 4.234375 -2.375 C 4.878906 -1.695312 5.769531 -1.359375 6.90625 -1.359375 C 7.757812 -1.359375 8.445312 -1.507812 8.96875 -1.8125 C 9.488281 -2.113281 9.894531 -2.59375 10.1875 -3.25 L 10.421875 -3.25 L 11.578125 -2.5625 C 11.222656 -1.695312 10.660156 -1.015625 9.890625 -0.515625 C 9.128906 -0.015625 8.132812 0.234375 6.90625 0.234375 C 5.738281 0.234375 4.738281 0.00390625 3.90625 -0.453125 C 3.070312 -0.910156 2.429688 -1.601562 1.984375 -2.53125 C 1.535156 -3.457031 1.3125 -4.609375 1.3125 -5.984375 C 1.3125 -7.347656 1.546875 -8.492188 2.015625 -9.421875 C 2.492188 -10.359375 3.144531 -11.054688 3.96875 -11.515625 C 4.789062 -11.984375 5.734375 -12.21875 6.796875 -12.21875 C 8.328125 -12.21875 9.519531 -11.78125 10.375 -10.90625 C 11.238281 -10.039062 11.675781 -8.757812 11.6875 -7.0625 C 11.6875 -6.394531 11.671875 -5.945312 11.640625 -5.71875 Z M 9.9375 -7.0625 C 9.90625 -8.332031 9.625 -9.257812 9.09375 -9.84375 C 8.5625 -10.425781 7.796875 -10.71875 6.796875 -10.71875 C 5.742188 -10.71875 4.914062 -10.425781 4.3125 -9.84375 C 3.71875 -9.257812 3.359375 -8.332031 3.234375 -7.0625 Z M 9.9375 -7.0625 "/></g></g></g><g fill="#000000" fill-opacity="1"><g transform="translate(280.992867, 293.226456)"><g><path d="M 7.96875 0.234375 C 7.070312 0.234375 6.296875 0.0625 5.640625 -0.28125 C 4.984375 -0.625 4.460938 -1.082031 4.078125 -1.65625 L 3.859375 -1.609375 L 3.859375 0 L 2.09375 0 L 2.09375 -16.796875 L 3.859375 -16.796875 L 3.859375 -10.1875 L 4.078125 -10.140625 C 4.992188 -11.523438 6.320312 -12.21875 8.0625 -12.21875 C 9.039062 -12.21875 9.898438 -11.988281 10.640625 -11.53125 C 11.378906 -11.070312 11.953125 -10.375 12.359375 -9.4375 C 12.773438 -8.507812 12.984375 -7.359375 12.984375 -5.984375 C 12.984375 -4.617188 12.765625 -3.472656 12.328125 -2.546875 C 11.898438 -1.617188 11.3125 -0.921875 10.5625 -0.453125 C 9.8125 0.00390625 8.945312 0.234375 7.96875 0.234375 Z M 7.546875 -1.359375 C 9.929688 -1.359375 11.125 -2.898438 11.125 -5.984375 C 11.125 -7.585938 10.8125 -8.757812 10.1875 -9.5 C 9.5625 -10.25 8.679688 -10.625 7.546875 -10.625 C 6.421875 -10.625 5.523438 -10.238281 4.859375 -9.46875 C 4.191406 -8.707031 3.859375 -7.546875 3.859375 -5.984375 C 3.859375 -4.429688 4.191406 -3.269531 4.859375 -2.5 C 5.523438 -1.738281 6.421875 -1.359375 7.546875 -1.359375 Z M 7.546875 -1.359375 "/></g></g></g></svg>