<svg xmlns="http://www.w3.org/2000/svg" xmlns:xlink="http://www.w3.org/1999/xlink" width="500" zoomAndPan="magnify" viewBox="0 0 375 374.999991" height="500" preserveAspectRatio="xMidYMid meet" version="1.0"><defs><g/><clipPath id="68c4f21c81"><path d="M 68.320312 57.742188 L 293.320312 57.742188 L 293.320312 245.992188 L 68.320312 245.992188 Z M 68.320312 57.742188 " clip-rule="nonzero"/></clipPath><clipPath id="2adc61777b"><path d="M 268.886719 103.214844 C 253.761719 88.085938 232.816406 78.777344 209.726562 78.777344 L 168.648438 78.777344 C 167.394531 71.707031 161.21875 66.335938 153.703125 66.335938 C 145.378906 66.335938 138.574219 73.136719 138.574219 81.464844 C 138.574219 82.625 138.664062 83.699219 138.933594 84.773438 L 105.28125 99.097656 L 87.203125 91.039062 C 87.203125 90.683594 87.292969 90.234375 87.292969 89.878906 C 87.292969 84.597656 82.996094 80.390625 77.804688 80.390625 C 72.527344 80.390625 68.320312 84.597656 68.320312 89.878906 C 68.320312 95.070312 72.527344 99.367188 77.804688 99.367188 C 79.417969 99.367188 80.9375 98.917969 82.28125 98.203125 L 108.863281 124.789062 L 108.863281 245.992188 L 209.726562 245.992188 C 232.816406 245.992188 253.761719 236.589844 268.886719 221.464844 C 284.011719 206.335938 293.320312 185.480469 293.320312 162.382812 C 293.320312 139.289062 284.011719 118.34375 268.886719 103.214844 Z M 86.039062 63.113281 C 87.5625 63.113281 88.726562 61.949219 88.726562 60.425781 C 88.726562 58.90625 87.5625 57.742188 86.039062 57.742188 C 84.609375 57.742188 83.355469 58.90625 83.355469 60.425781 C 83.355469 61.949219 84.609375 63.113281 86.039062 63.113281 Z M 99.734375 83.523438 C 103.402344 83.523438 106.265625 80.566406 106.265625 76.988281 C 106.265625 73.316406 103.402344 70.453125 99.734375 70.453125 C 96.152344 70.453125 93.199219 73.316406 93.199219 76.988281 C 93.199219 80.566406 96.152344 83.523438 99.734375 83.523438 Z M 126.046875 77.34375 C 126.046875 75.105469 124.167969 73.226562 121.929688 73.226562 C 119.691406 73.226562 117.8125 75.105469 117.8125 77.34375 C 117.8125 79.582031 119.691406 81.464844 121.929688 81.464844 C 124.167969 81.464844 126.046875 79.582031 126.046875 77.34375 Z M 151.015625 96.410156 L 151.015625 119.417969 L 133.027344 111.449219 L 133.027344 110.644531 C 133.027344 109.300781 132.667969 108.046875 132.132812 106.972656 L 145.109375 93.996094 C 146.808594 95.160156 148.867188 96.054688 151.015625 96.410156 Z M 163.992188 92.652344 L 201.492188 120.9375 L 156.476562 120.9375 L 156.476562 96.410156 C 159.339844 95.875 161.933594 94.53125 163.992188 92.652344 Z M 161.128906 86.921875 L 161.039062 87.011719 C 159.429688 89.25 156.746094 90.683594 153.703125 90.683594 C 151.195312 90.683594 148.867188 89.609375 147.257812 87.996094 C 145.558594 86.296875 144.574219 84.058594 144.574219 81.464844 C 144.574219 76.449219 148.6875 72.332031 153.703125 72.332031 C 158.800781 72.332031 162.917969 76.449219 162.917969 81.464844 C 162.917969 83.523438 162.203125 85.402344 161.128906 86.921875 Z M 141.082031 89.878906 L 141.261719 90.144531 L 128.285156 103.035156 C 127.121094 102.5 125.867188 102.230469 124.523438 102.230469 C 122.109375 102.230469 119.871094 103.214844 118.347656 104.914062 L 112.085938 102.140625 Z M 130.789062 116.464844 L 151.015625 125.414062 L 151.015625 159.160156 L 115.484375 123.625 L 120.855469 118.253906 C 121.929688 118.789062 123.183594 119.148438 124.523438 119.148438 C 127.03125 119.148438 129.179688 118.074219 130.789062 116.464844 Z M 127.835938 112.167969 Z M 124.523438 107.152344 C 125.507812 107.152344 126.402344 107.511719 127.03125 108.136719 C 127.746094 108.765625 128.105469 109.660156 128.105469 110.644531 C 128.105469 111.183594 128.015625 111.628906 127.835938 112.078125 L 127.835938 112.167969 C 127.210938 113.417969 125.957031 114.226562 124.523438 114.226562 C 123.539062 114.226562 122.644531 113.867188 122.019531 113.152344 C 121.390625 112.523438 121.035156 111.628906 121.035156 110.644531 C 121.035156 108.675781 122.554688 107.152344 124.523438 107.152344 Z M 116.113281 110.644531 C 116.113281 111.988281 116.378906 113.242188 116.917969 114.402344 L 111.546875 119.773438 L 90.246094 98.382812 L 116.113281 109.929688 Z M 156.476562 126.398438 L 209.726562 126.398438 C 219.660156 126.398438 228.613281 130.425781 235.144531 136.960938 C 241.679688 143.40625 245.707031 152.449219 245.707031 162.382812 C 245.707031 172.320312 241.679688 181.273438 235.144531 187.804688 C 228.613281 194.25 219.660156 198.28125 209.726562 198.28125 L 156.476562 198.28125 Z M 156.476562 126.398438 " clip-rule="nonzero"/></clipPath><linearGradient x1="665.540374" gradientTransform="matrix(0.0894988, 0, 0, 0.0895146, 68.319347, 57.741549)" y1="-292.903882" x2="1848.813464" gradientUnits="userSpaceOnUse" y2="2395.747671" id="94c5f875d4"><stop stop-opacity="1" stop-color="rgb(18.798828%, 37.298584%, 87.5%)" offset="0"/><stop stop-opacity="1" stop-color="rgb(18.798828%, 37.298584%, 87.5%)" offset="0.25"/><stop stop-opacity="1" stop-color="rgb(18.798828%, 37.298584%, 87.5%)" offset="0.257812"/><stop stop-opacity="1" stop-color="rgb(19.036865%, 37.220764%, 87.239075%)" offset="0.261719"/><stop stop-opacity="1" stop-color="rgb(19.276428%, 37.142944%, 86.979675%)" offset="0.265625"/><stop stop-opacity="1" stop-color="rgb(19.606018%, 37.033081%, 86.619568%)" offset="0.269531"/><stop stop-opacity="1" stop-color="rgb(19.937134%, 36.924744%, 86.260986%)" offset="0.273438"/><stop stop-opacity="1" stop-color="rgb(20.26825%, 36.81488%, 85.900879%)" offset="0.277344"/><stop stop-opacity="1" stop-color="rgb(20.599365%, 36.706543%, 85.540771%)" offset="0.28125"/><stop stop-opacity="1" stop-color="rgb(20.928955%, 36.598206%, 85.180664%)" offset="0.285156"/><stop stop-opacity="1" stop-color="rgb(21.260071%, 36.489868%, 84.822083%)" offset="0.289062"/><stop stop-opacity="1" stop-color="rgb(21.591187%, 36.380005%, 84.461975%)" offset="0.292969"/><stop stop-opacity="1" stop-color="rgb(21.922302%, 36.271667%, 84.101868%)" offset="0.296875"/><stop stop-opacity="1" stop-color="rgb(22.251892%, 36.16333%, 83.74176%)" offset="0.300781"/><stop stop-opacity="1" stop-color="rgb(22.583008%, 36.054993%, 83.383179%)" offset="0.304688"/><stop stop-opacity="1" stop-color="rgb(22.914124%, 35.945129%, 83.023071%)" offset="0.308594"/><stop stop-opacity="1" stop-color="rgb(23.245239%, 35.836792%, 82.662964%)" offset="0.3125"/><stop stop-opacity="1" stop-color="rgb(23.574829%, 35.726929%, 82.302856%)" offset="0.316406"/><stop stop-opacity="1" stop-color="rgb(23.905945%, 35.618591%, 81.944275%)" offset="0.320313"/><stop stop-opacity="1" stop-color="rgb(24.237061%, 35.510254%, 81.584167%)" offset="0.324219"/><stop stop-opacity="1" stop-color="rgb(24.568176%, 35.401917%, 81.22406%)" offset="0.328125"/><stop stop-opacity="1" stop-color="rgb(24.899292%, 35.292053%, 80.863953%)" offset="0.332031"/><stop stop-opacity="1" stop-color="rgb(25.230408%, 35.183716%, 80.505371%)" offset="0.335938"/><stop stop-opacity="1" stop-color="rgb(25.559998%, 35.075378%, 80.145264%)" offset="0.339844"/><stop stop-opacity="1" stop-color="rgb(25.891113%, 34.967041%, 79.785156%)" offset="0.34375"/><stop stop-opacity="1" stop-color="rgb(26.222229%, 34.857178%, 79.425049%)" offset="0.347656"/><stop stop-opacity="1" stop-color="rgb(26.553345%, 34.74884%, 79.066467%)" offset="0.351563"/><stop stop-opacity="1" stop-color="rgb(26.882935%, 34.638977%, 78.70636%)" offset="0.355469"/><stop stop-opacity="1" stop-color="rgb(27.21405%, 34.53064%, 78.346252%)" offset="0.359375"/><stop stop-opacity="1" stop-color="rgb(27.545166%, 34.422302%, 77.986145%)" offset="0.363281"/><stop stop-opacity="1" stop-color="rgb(27.876282%, 34.313965%, 77.626038%)" offset="0.367188"/><stop stop-opacity="1" stop-color="rgb(28.205872%, 34.204102%, 77.26593%)" offset="0.371094"/><stop stop-opacity="1" stop-color="rgb(28.536987%, 34.095764%, 76.907349%)" offset="0.375"/><stop stop-opacity="1" stop-color="rgb(28.868103%, 33.987427%, 76.547241%)" offset="0.378906"/><stop stop-opacity="1" stop-color="rgb(29.199219%, 33.879089%, 76.187134%)" offset="0.382812"/><stop stop-opacity="1" stop-color="rgb(29.528809%, 33.769226%, 75.827026%)" offset="0.386719"/><stop stop-opacity="1" stop-color="rgb(29.859924%, 33.660889%, 75.468445%)" offset="0.390625"/><stop stop-opacity="1" stop-color="rgb(30.19104%, 33.551025%, 75.108337%)" offset="0.394531"/><stop stop-opacity="1" stop-color="rgb(30.522156%, 33.442688%, 74.74823%)" offset="0.398438"/><stop stop-opacity="1" stop-color="rgb(30.851746%, 33.334351%, 74.388123%)" offset="0.402344"/><stop stop-opacity="1" stop-color="rgb(31.182861%, 33.226013%, 74.029541%)" offset="0.40625"/><stop stop-opacity="1" stop-color="rgb(31.513977%, 33.11615%, 73.669434%)" offset="0.410156"/><stop stop-opacity="1" stop-color="rgb(31.845093%, 33.007812%, 73.309326%)" offset="0.414062"/><stop stop-opacity="1" stop-color="rgb(32.174683%, 32.899475%, 72.949219%)" offset="0.417969"/><stop stop-opacity="1" stop-color="rgb(32.505798%, 32.791138%, 72.590637%)" offset="0.421875"/><stop stop-opacity="1" stop-color="rgb(32.836914%, 32.681274%, 72.23053%)" offset="0.425781"/><stop stop-opacity="1" stop-color="rgb(33.16803%, 32.572937%, 71.870422%)" offset="0.429688"/><stop stop-opacity="1" stop-color="rgb(33.49762%, 32.463074%, 71.510315%)" offset="0.433594"/><stop stop-opacity="1" stop-color="rgb(33.828735%, 32.354736%, 71.151733%)" offset="0.4375"/><stop stop-opacity="1" stop-color="rgb(34.159851%, 32.246399%, 70.791626%)" offset="0.441406"/><stop stop-opacity="1" stop-color="rgb(34.490967%, 32.138062%, 70.431519%)" offset="0.445313"/><stop stop-opacity="1" stop-color="rgb(34.820557%, 32.028198%, 70.071411%)" offset="0.449219"/><stop stop-opacity="1" stop-color="rgb(35.151672%, 31.919861%, 69.711304%)" offset="0.453125"/><stop stop-opacity="1" stop-color="rgb(35.482788%, 31.811523%, 69.351196%)" offset="0.457031"/><stop stop-opacity="1" stop-color="rgb(35.813904%, 31.703186%, 68.992615%)" offset="0.460938"/><stop stop-opacity="1" stop-color="rgb(36.143494%, 31.593323%, 68.632507%)" offset="0.464844"/><stop stop-opacity="1" stop-color="rgb(36.474609%, 31.484985%, 68.2724%)" offset="0.46875"/><stop stop-opacity="1" stop-color="rgb(36.805725%, 31.375122%, 67.912292%)" offset="0.472656"/><stop stop-opacity="1" stop-color="rgb(37.136841%, 31.266785%, 67.553711%)" offset="0.476563"/><stop stop-opacity="1" stop-color="rgb(37.466431%, 31.158447%, 67.193604%)" offset="0.480469"/><stop stop-opacity="1" stop-color="rgb(37.797546%, 31.05011%, 66.833496%)" offset="0.484375"/><stop stop-opacity="1" stop-color="rgb(38.128662%, 30.940247%, 66.473389%)" offset="0.488281"/><stop stop-opacity="1" stop-color="rgb(38.459778%, 30.831909%, 66.114807%)" offset="0.492188"/><stop stop-opacity="1" stop-color="rgb(38.789368%, 30.723572%, 65.7547%)" offset="0.496094"/><stop stop-opacity="1" stop-color="rgb(39.120483%, 30.615234%, 65.394592%)" offset="0.5"/><stop stop-opacity="1" stop-color="rgb(39.451599%, 30.505371%, 65.034485%)" offset="0.503906"/><stop stop-opacity="1" stop-color="rgb(39.782715%, 30.397034%, 64.675903%)" offset="0.507813"/><stop stop-opacity="1" stop-color="rgb(40.112305%, 30.28717%, 64.315796%)" offset="0.511719"/><stop stop-opacity="1" stop-color="rgb(40.44342%, 30.178833%, 63.955688%)" offset="0.515625"/><stop stop-opacity="1" stop-color="rgb(40.774536%, 30.070496%, 63.595581%)" offset="0.519531"/><stop stop-opacity="1" stop-color="rgb(41.105652%, 29.962158%, 63.237%)" offset="0.523438"/><stop stop-opacity="1" stop-color="rgb(41.456604%, 29.846191%, 62.854004%)" offset="0.527344"/><stop stop-opacity="1" stop-color="rgb(41.809082%, 29.730225%, 62.471008%)" offset="0.53125"/><stop stop-opacity="1" stop-color="rgb(42.222595%, 29.592896%, 62.020874%)" offset="0.535156"/><stop stop-opacity="1" stop-color="rgb(42.636108%, 29.455566%, 61.57074%)" offset="0.539062"/><stop stop-opacity="1" stop-color="rgb(43.048096%, 29.318237%, 61.11908%)" offset="0.542969"/><stop stop-opacity="1" stop-color="rgb(43.461609%, 29.180908%, 60.668945%)" offset="0.546875"/><stop stop-opacity="1" stop-color="rgb(43.875122%, 29.043579%, 60.218811%)" offset="0.550781"/><stop stop-opacity="1" stop-color="rgb(44.288635%, 28.90625%, 59.768677%)" offset="0.554688"/><stop stop-opacity="1" stop-color="rgb(44.702148%, 28.768921%, 59.317017%)" offset="0.558594"/><stop stop-opacity="1" stop-color="rgb(45.115662%, 28.631592%, 58.866882%)" offset="0.5625"/><stop stop-opacity="1" stop-color="rgb(45.529175%, 28.494263%, 58.416748%)" offset="0.566406"/><stop stop-opacity="1" stop-color="rgb(45.942688%, 28.358459%, 57.966614%)" offset="0.570312"/><stop stop-opacity="1" stop-color="rgb(46.356201%, 28.22113%, 57.514954%)" offset="0.574219"/><stop stop-opacity="1" stop-color="rgb(46.769714%, 28.083801%, 57.064819%)" offset="0.578125"/><stop stop-opacity="1" stop-color="rgb(47.183228%, 27.946472%, 56.614685%)" offset="0.582031"/><stop stop-opacity="1" stop-color="rgb(47.596741%, 27.809143%, 56.164551%)" offset="0.585938"/><stop stop-opacity="1" stop-color="rgb(48.008728%, 27.671814%, 55.712891%)" offset="0.589844"/><stop stop-opacity="1" stop-color="rgb(48.422241%, 27.534485%, 55.262756%)" offset="0.59375"/><stop stop-opacity="1" stop-color="rgb(48.835754%, 27.397156%, 54.812622%)" offset="0.597656"/><stop stop-opacity="1" stop-color="rgb(49.249268%, 27.259827%, 54.362488%)" offset="0.601562"/><stop stop-opacity="1" stop-color="rgb(49.662781%, 27.122498%, 53.912354%)" offset="0.605469"/><stop stop-opacity="1" stop-color="rgb(50.076294%, 26.986694%, 53.462219%)" offset="0.609375"/><stop stop-opacity="1" stop-color="rgb(50.489807%, 26.849365%, 53.010559%)" offset="0.613281"/><stop stop-opacity="1" stop-color="rgb(50.90332%, 26.712036%, 52.560425%)" offset="0.617188"/><stop stop-opacity="1" stop-color="rgb(51.316833%, 26.574707%, 52.110291%)" offset="0.621094"/><stop stop-opacity="1" stop-color="rgb(51.730347%, 26.437378%, 51.660156%)" offset="0.625"/><stop stop-opacity="1" stop-color="rgb(52.14386%, 26.300049%, 51.208496%)" offset="0.628906"/><stop stop-opacity="1" stop-color="rgb(52.557373%, 26.16272%, 50.758362%)" offset="0.632812"/><stop stop-opacity="1" stop-color="rgb(52.970886%, 26.025391%, 50.308228%)" offset="0.636719"/><stop stop-opacity="1" stop-color="rgb(53.384399%, 25.888062%, 49.858093%)" offset="0.640625"/><stop stop-opacity="1" stop-color="rgb(53.796387%, 25.750732%, 49.406433%)" offset="0.644531"/><stop stop-opacity="1" stop-color="rgb(54.2099%, 25.614929%, 48.956299%)" offset="0.648438"/><stop stop-opacity="1" stop-color="rgb(54.623413%, 25.4776%, 48.506165%)" offset="0.652344"/><stop stop-opacity="1" stop-color="rgb(55.036926%, 25.340271%, 48.05603%)" offset="0.65625"/><stop stop-opacity="1" stop-color="rgb(55.450439%, 25.202942%, 47.605896%)" offset="0.660156"/><stop stop-opacity="1" stop-color="rgb(55.863953%, 25.065613%, 47.155762%)" offset="0.664063"/><stop stop-opacity="1" stop-color="rgb(56.277466%, 24.928284%, 46.704102%)" offset="0.667969"/><stop stop-opacity="1" stop-color="rgb(56.690979%, 24.790955%, 46.253967%)" offset="0.671875"/><stop stop-opacity="1" stop-color="rgb(57.104492%, 24.653625%, 45.803833%)" offset="0.675781"/><stop stop-opacity="1" stop-color="rgb(57.518005%, 24.516296%, 45.353699%)" offset="0.679688"/><stop stop-opacity="1" stop-color="rgb(57.931519%, 24.378967%, 44.902039%)" offset="0.683594"/><stop stop-opacity="1" stop-color="rgb(58.345032%, 24.243164%, 44.451904%)" offset="0.6875"/><stop stop-opacity="1" stop-color="rgb(58.757019%, 24.105835%, 44.00177%)" offset="0.691406"/><stop stop-opacity="1" stop-color="rgb(59.170532%, 23.968506%, 43.551636%)" offset="0.695312"/><stop stop-opacity="1" stop-color="rgb(59.584045%, 23.831177%, 43.099976%)" offset="0.699219"/><stop stop-opacity="1" stop-color="rgb(59.997559%, 23.693848%, 42.649841%)" offset="0.703125"/><stop stop-opacity="1" stop-color="rgb(60.411072%, 23.556519%, 42.199707%)" offset="0.707031"/><stop stop-opacity="1" stop-color="rgb(60.824585%, 23.419189%, 41.749573%)" offset="0.710938"/><stop stop-opacity="1" stop-color="rgb(61.238098%, 23.28186%, 41.299438%)" offset="0.714844"/><stop stop-opacity="1" stop-color="rgb(61.651611%, 23.144531%, 40.849304%)" offset="0.71875"/><stop stop-opacity="1" stop-color="rgb(62.065125%, 23.007202%, 40.397644%)" offset="0.722656"/><stop stop-opacity="1" stop-color="rgb(62.478638%, 22.871399%, 39.94751%)" offset="0.726563"/><stop stop-opacity="1" stop-color="rgb(62.892151%, 22.73407%, 39.497375%)" offset="0.730469"/><stop stop-opacity="1" stop-color="rgb(63.305664%, 22.596741%, 39.047241%)" offset="0.734375"/><stop stop-opacity="1" stop-color="rgb(63.601685%, 22.497559%, 38.722229%)" offset="0.738281"/><stop stop-opacity="1" stop-color="rgb(63.899231%, 22.399902%, 38.398743%)" offset="0.742188"/><stop stop-opacity="1" stop-color="rgb(63.899231%, 22.399902%, 38.398743%)" offset="0.75"/><stop stop-opacity="1" stop-color="rgb(63.899231%, 22.399902%, 38.398743%)" offset="1"/></linearGradient></defs><g clip-path="url(#68c4f21c81)"><g clip-path="url(#2adc61777b)"><path fill="url(#94c5f875d4)" d="M 68.320312 57.742188 L 68.320312 245.992188 L 293.320312 245.992188 L 293.320312 57.742188 Z M 68.320312 57.742188 " fill-rule="nonzero"/></g></g><g fill="#ffffff" fill-opacity="1"><g transform="translate(96.690014, 281.147619)"><g><path d="M 7.015625 0 L 3.421875 0 L 3.421875 -27.21875 L 7.015625 -27.21875 Z M 7.015625 0 "/></g></g></g><g fill="#ffffff" fill-opacity="1"><g transform="translate(110.127413, 281.147619)"><g><path d="M 9.296875 -4.6875 L 14.296875 -20.21875 L 17.828125 -20.21875 L 10.578125 0 L 7.9375 0 L 0.609375 -20.21875 L 4.15625 -20.21875 Z M 9.296875 -4.6875 "/></g></g></g><g fill="#ffffff" fill-opacity="1"><g transform="translate(131.696662, 281.147619)"><g><path d="M 15.109375 0 C 14.898438 -0.394531 14.734375 -1.101562 14.609375 -2.125 C 13.003906 -0.457031 11.085938 0.375 8.859375 0.375 C 6.867188 0.375 5.234375 -0.1875 3.953125 -1.3125 C 2.671875 -2.445312 2.03125 -3.878906 2.03125 -5.609375 C 2.03125 -7.710938 2.832031 -9.347656 4.4375 -10.515625 C 6.039062 -11.679688 8.296875 -12.265625 11.203125 -12.265625 L 14.5625 -12.265625 L 14.5625 -13.84375 C 14.5625 -15.050781 14.195312 -16.015625 13.46875 -16.734375 C 12.75 -17.453125 11.6875 -17.8125 10.28125 -17.8125 C 9.050781 -17.8125 8.015625 -17.5 7.171875 -16.875 C 6.335938 -16.25 5.921875 -15.492188 5.921875 -14.609375 L 2.453125 -14.609375 C 2.453125 -15.617188 2.804688 -16.59375 3.515625 -17.53125 C 4.234375 -18.476562 5.207031 -19.222656 6.4375 -19.765625 C 7.664062 -20.316406 9.015625 -20.59375 10.484375 -20.59375 C 12.816406 -20.59375 14.640625 -20.007812 15.953125 -18.84375 C 17.273438 -17.6875 17.960938 -16.082031 18.015625 -14.03125 L 18.015625 -4.734375 C 18.015625 -2.867188 18.253906 -1.390625 18.734375 -0.296875 L 18.734375 0 Z M 9.359375 -2.640625 C 10.441406 -2.640625 11.46875 -2.914062 12.4375 -3.46875 C 13.414062 -4.03125 14.125 -4.757812 14.5625 -5.65625 L 14.5625 -9.8125 L 11.84375 -9.8125 C 7.613281 -9.8125 5.5 -8.570312 5.5 -6.09375 C 5.5 -5.007812 5.859375 -4.160156 6.578125 -3.546875 C 7.296875 -2.941406 8.222656 -2.640625 9.359375 -2.640625 Z M 9.359375 -2.640625 "/></g></g></g><g fill="#ffffff" fill-opacity="1"><g transform="translate(155.546568, 281.147619)"><g><path d="M 5.890625 -20.21875 L 6 -17.6875 C 7.539062 -19.625 9.5625 -20.59375 12.0625 -20.59375 C 16.332031 -20.59375 18.488281 -18.179688 18.53125 -13.359375 L 18.53125 0 L 15.0625 0 L 15.0625 -13.390625 C 15.050781 -14.847656 14.71875 -15.921875 14.0625 -16.609375 C 13.40625 -17.304688 12.390625 -17.65625 11.015625 -17.65625 C 9.890625 -17.65625 8.898438 -17.359375 8.046875 -16.765625 C 7.203125 -16.171875 6.546875 -15.382812 6.078125 -14.40625 L 6.078125 0 L 2.609375 0 L 2.609375 -20.21875 Z M 5.890625 -20.21875 "/></g></g></g><g fill="#ffffff" fill-opacity="1"><g transform="translate(179.69558, 281.147619)"><g><path d="M 15.109375 0 C 14.898438 -0.394531 14.734375 -1.101562 14.609375 -2.125 C 13.003906 -0.457031 11.085938 0.375 8.859375 0.375 C 6.867188 0.375 5.234375 -0.1875 3.953125 -1.3125 C 2.671875 -2.445312 2.03125 -3.878906 2.03125 -5.609375 C 2.03125 -7.710938 2.832031 -9.347656 4.4375 -10.515625 C 6.039062 -11.679688 8.296875 -12.265625 11.203125 -12.265625 L 14.5625 -12.265625 L 14.5625 -13.84375 C 14.5625 -15.050781 14.195312 -16.015625 13.46875 -16.734375 C 12.75 -17.453125 11.6875 -17.8125 10.28125 -17.8125 C 9.050781 -17.8125 8.015625 -17.5 7.171875 -16.875 C 6.335938 -16.25 5.921875 -15.492188 5.921875 -14.609375 L 2.453125 -14.609375 C 2.453125 -15.617188 2.804688 -16.59375 3.515625 -17.53125 C 4.234375 -18.476562 5.207031 -19.222656 6.4375 -19.765625 C 7.664062 -20.316406 9.015625 -20.59375 10.484375 -20.59375 C 12.816406 -20.59375 14.640625 -20.007812 15.953125 -18.84375 C 17.273438 -17.6875 17.960938 -16.082031 18.015625 -14.03125 L 18.015625 -4.734375 C 18.015625 -2.867188 18.253906 -1.390625 18.734375 -0.296875 L 18.734375 0 Z M 9.359375 -2.640625 C 10.441406 -2.640625 11.46875 -2.914062 12.4375 -3.46875 C 13.414062 -4.03125 14.125 -4.757812 14.5625 -5.65625 L 14.5625 -9.8125 L 11.84375 -9.8125 C 7.613281 -9.8125 5.5 -8.570312 5.5 -6.09375 C 5.5 -5.007812 5.859375 -4.160156 6.578125 -3.546875 C 7.296875 -2.941406 8.222656 -2.640625 9.359375 -2.640625 Z M 9.359375 -2.640625 "/></g></g></g><g fill="#ffffff" fill-opacity="1"><g transform="translate(203.545484, 281.147619)"><g/></g></g><g fill="#ffffff" fill-opacity="1"><g transform="translate(216.048187, 281.147619)"><g><path d="M 3.15625 0 L 3.15625 -27.21875 L 10.84375 -27.21875 C 13.207031 -27.21875 15.296875 -26.691406 17.109375 -25.640625 C 18.929688 -24.597656 20.335938 -23.109375 21.328125 -21.171875 C 22.328125 -19.242188 22.832031 -17.03125 22.84375 -14.53125 L 22.84375 -12.78125 C 22.84375 -10.21875 22.347656 -7.96875 21.359375 -6.03125 C 20.367188 -4.101562 18.953125 -2.617188 17.109375 -1.578125 C 15.273438 -0.546875 13.132812 -0.0195312 10.6875 0 Z M 6.75 -24.265625 L 6.75 -2.9375 L 10.53125 -2.9375 C 13.289062 -2.9375 15.441406 -3.796875 16.984375 -5.515625 C 18.523438 -7.234375 19.296875 -9.679688 19.296875 -12.859375 L 19.296875 -14.453125 C 19.296875 -17.535156 18.566406 -19.929688 17.109375 -21.640625 C 15.660156 -23.359375 13.601562 -24.234375 10.9375 -24.265625 Z M 6.75 -24.265625 "/></g></g></g><g fill="#ffffff" fill-opacity="1"><g transform="translate(244.179011, 281.147619)"><g><path d="M 11.015625 0.375 C 8.265625 0.375 6.03125 -0.523438 4.3125 -2.328125 C 2.59375 -4.128906 1.734375 -6.535156 1.734375 -9.546875 L 1.734375 -10.1875 C 1.734375 -12.195312 2.113281 -13.988281 2.875 -15.5625 C 3.644531 -17.132812 4.71875 -18.363281 6.09375 -19.25 C 7.476562 -20.144531 8.972656 -20.59375 10.578125 -20.59375 C 13.210938 -20.59375 15.253906 -19.726562 16.703125 -18 C 18.160156 -16.269531 18.890625 -13.789062 18.890625 -10.5625 L 18.890625 -9.125 L 5.203125 -9.125 C 5.242188 -7.125 5.820312 -5.507812 6.9375 -4.28125 C 8.050781 -3.0625 9.472656 -2.453125 11.203125 -2.453125 C 12.421875 -2.453125 13.453125 -2.695312 14.296875 -3.1875 C 15.148438 -3.6875 15.894531 -4.347656 16.53125 -5.171875 L 18.640625 -3.53125 C 16.941406 -0.925781 14.398438 0.375 11.015625 0.375 Z M 10.578125 -17.75 C 9.179688 -17.75 8.007812 -17.238281 7.0625 -16.21875 C 6.113281 -15.207031 5.53125 -13.789062 5.3125 -11.96875 L 15.4375 -11.96875 L 15.4375 -12.21875 C 15.34375 -13.976562 14.867188 -15.335938 14.015625 -16.296875 C 13.171875 -17.265625 12.023438 -17.75 10.578125 -17.75 Z M 10.578125 -17.75 "/></g></g></g><g fill="#ffffff" fill-opacity="1"><g transform="translate(267.486802, 281.147619)"><g><path d="M 9.296875 -4.6875 L 14.296875 -20.21875 L 17.828125 -20.21875 L 10.578125 0 L 7.9375 0 L 0.609375 -20.21875 L 4.15625 -20.21875 Z M 9.296875 -4.6875 "/></g></g></g><g fill="#ffffff" fill-opacity="1"><g transform="translate(96.148681, 307.789228)"><g><path d="M 1.59375 0 L 1.59375 -12.625 L 5.125 -12.625 C 6.15625 -12.625 7.082031 -12.382812 7.90625 -11.90625 C 8.726562 -11.4375 9.367188 -10.765625 9.828125 -9.890625 C 10.285156 -9.015625 10.515625 -8.015625 10.515625 -6.890625 L 10.515625 -5.734375 C 10.515625 -4.597656 10.285156 -3.59375 9.828125 -2.71875 C 9.367188 -1.851562 8.722656 -1.179688 7.890625 -0.703125 C 7.066406 -0.234375 6.117188 0 5.046875 0 Z M 2.65625 -11.703125 L 2.65625 -0.90625 L 5.046875 -0.90625 C 6.378906 -0.90625 7.445312 -1.34375 8.25 -2.21875 C 9.050781 -3.101562 9.453125 -4.296875 9.453125 -5.796875 L 9.453125 -6.90625 C 9.453125 -8.351562 9.054688 -9.515625 8.265625 -10.390625 C 7.472656 -11.265625 6.429688 -11.703125 5.140625 -11.703125 Z M 2.65625 -11.703125 "/></g></g></g><g fill="#ffffff" fill-opacity="1"><g transform="translate(111.138905, 307.789228)"><g><path d="M 8.5625 -6.046875 L 2.65625 -6.046875 L 2.65625 -0.90625 L 9.453125 -0.90625 L 9.453125 0 L 1.59375 0 L 1.59375 -12.625 L 9.40625 -12.625 L 9.40625 -11.703125 L 2.65625 -11.703125 L 2.65625 -6.953125 L 8.5625 -6.953125 Z M 8.5625 -6.046875 "/></g></g></g><g fill="#ffffff" fill-opacity="1"><g transform="translate(124.60441, 307.789228)"><g><path d="M 8.734375 -3.109375 C 8.734375 -3.804688 8.488281 -4.359375 8 -4.765625 C 7.507812 -5.171875 6.609375 -5.554688 5.296875 -5.921875 C 3.992188 -6.285156 3.039062 -6.6875 2.4375 -7.125 C 1.582031 -7.738281 1.15625 -8.539062 1.15625 -9.53125 C 1.15625 -10.5 1.550781 -11.285156 2.34375 -11.890625 C 3.144531 -12.492188 4.164062 -12.796875 5.40625 -12.796875 C 6.238281 -12.796875 6.984375 -12.632812 7.640625 -12.3125 C 8.304688 -11.988281 8.820312 -11.535156 9.1875 -10.953125 C 9.550781 -10.378906 9.734375 -9.734375 9.734375 -9.015625 L 8.65625 -9.015625 C 8.65625 -9.878906 8.359375 -10.570312 7.765625 -11.09375 C 7.179688 -11.613281 6.394531 -11.875 5.40625 -11.875 C 4.4375 -11.875 3.664062 -11.660156 3.09375 -11.234375 C 2.519531 -10.804688 2.234375 -10.242188 2.234375 -9.546875 C 2.234375 -8.910156 2.488281 -8.390625 3 -7.984375 C 3.519531 -7.578125 4.34375 -7.21875 5.46875 -6.90625 C 6.601562 -6.601562 7.460938 -6.285156 8.046875 -5.953125 C 8.628906 -5.617188 9.066406 -5.21875 9.359375 -4.75 C 9.660156 -4.289062 9.8125 -3.75 9.8125 -3.125 C 9.8125 -2.125 9.410156 -1.320312 8.609375 -0.71875 C 7.816406 -0.125 6.773438 0.171875 5.484375 0.171875 C 4.585938 0.171875 3.769531 0.015625 3.03125 -0.296875 C 2.289062 -0.617188 1.726562 -1.066406 1.34375 -1.640625 C 0.957031 -2.210938 0.765625 -2.867188 0.765625 -3.609375 L 1.828125 -3.609375 C 1.828125 -2.710938 2.160156 -2.007812 2.828125 -1.5 C 3.492188 -0.988281 4.378906 -0.734375 5.484375 -0.734375 C 6.460938 -0.734375 7.25 -0.945312 7.84375 -1.375 C 8.4375 -1.8125 8.734375 -2.390625 8.734375 -3.109375 Z M 8.734375 -3.109375 "/></g></g></g><g fill="#ffffff" fill-opacity="1"><g transform="translate(138.485747, 307.789228)"><g><path d="M 8.40625 -3.53125 L 2.671875 -3.53125 L 1.375 0 L 0.265625 0 L 5.03125 -12.625 L 6.046875 -12.625 L 10.828125 0 L 9.71875 0 Z M 3 -4.453125 L 8.0625 -4.453125 L 5.53125 -11.3125 Z M 3 -4.453125 "/></g></g></g><g fill="#ffffff" fill-opacity="1"><g transform="translate(152.938856, 307.789228)"><g><path d="M 6.3125 -5.25 L 2.640625 -5.25 L 2.640625 0 L 1.5625 0 L 1.5625 -12.625 L 5.671875 -12.625 C 7.015625 -12.625 8.0625 -12.296875 8.8125 -11.640625 C 9.570312 -10.984375 9.953125 -10.070312 9.953125 -8.90625 C 9.953125 -8.09375 9.710938 -7.375 9.234375 -6.75 C 8.765625 -6.132812 8.132812 -5.710938 7.34375 -5.484375 L 10.5 -0.109375 L 10.5 0 L 9.359375 0 Z M 2.640625 -6.15625 L 5.90625 -6.15625 C 6.800781 -6.15625 7.519531 -6.410156 8.0625 -6.921875 C 8.613281 -7.429688 8.890625 -8.09375 8.890625 -8.90625 C 8.890625 -9.789062 8.601562 -10.476562 8.03125 -10.96875 C 7.46875 -11.457031 6.675781 -11.703125 5.65625 -11.703125 L 2.640625 -11.703125 Z M 2.640625 -6.15625 "/></g></g></g><g fill="#ffffff" fill-opacity="1"><g transform="translate(167.573891, 307.789228)"><g><path d="M 6.3125 -5.25 L 2.640625 -5.25 L 2.640625 0 L 1.5625 0 L 1.5625 -12.625 L 5.671875 -12.625 C 7.015625 -12.625 8.0625 -12.296875 8.8125 -11.640625 C 9.570312 -10.984375 9.953125 -10.070312 9.953125 -8.90625 C 9.953125 -8.09375 9.710938 -7.375 9.234375 -6.75 C 8.765625 -6.132812 8.132812 -5.710938 7.34375 -5.484375 L 10.5 -0.109375 L 10.5 0 L 9.359375 0 Z M 2.640625 -6.15625 L 5.90625 -6.15625 C 6.800781 -6.15625 7.519531 -6.410156 8.0625 -6.921875 C 8.613281 -7.429688 8.890625 -8.09375 8.890625 -8.90625 C 8.890625 -9.789062 8.601562 -10.476562 8.03125 -10.96875 C 7.46875 -11.457031 6.675781 -11.703125 5.65625 -11.703125 L 2.640625 -11.703125 Z M 2.640625 -6.15625 "/></g></g></g><g fill="#ffffff" fill-opacity="1"><g transform="translate(182.208927, 307.789228)"><g><path d="M 10.921875 -5.625 C 10.921875 -4.46875 10.71875 -3.445312 10.3125 -2.5625 C 9.914062 -1.6875 9.34375 -1.007812 8.59375 -0.53125 C 7.851562 -0.0625 6.992188 0.171875 6.015625 0.171875 C 4.546875 0.171875 3.351562 -0.351562 2.4375 -1.40625 C 1.53125 -2.457031 1.078125 -3.878906 1.078125 -5.671875 L 1.078125 -6.984375 C 1.078125 -8.128906 1.28125 -9.144531 1.6875 -10.03125 C 2.101562 -10.914062 2.679688 -11.597656 3.421875 -12.078125 C 4.171875 -12.554688 5.03125 -12.796875 6 -12.796875 C 6.96875 -12.796875 7.820312 -12.5625 8.5625 -12.09375 C 9.3125 -11.625 9.882812 -10.960938 10.28125 -10.109375 C 10.6875 -9.253906 10.898438 -8.265625 10.921875 -7.140625 Z M 9.859375 -7 C 9.859375 -8.519531 9.515625 -9.707031 8.828125 -10.5625 C 8.140625 -11.425781 7.195312 -11.859375 6 -11.859375 C 4.820312 -11.859375 3.882812 -11.425781 3.1875 -10.5625 C 2.5 -9.695312 2.15625 -8.488281 2.15625 -6.9375 L 2.15625 -5.625 C 2.15625 -4.125 2.5 -2.9375 3.1875 -2.0625 C 3.882812 -1.1875 4.828125 -0.75 6.015625 -0.75 C 7.222656 -0.75 8.164062 -1.179688 8.84375 -2.046875 C 9.519531 -2.910156 9.859375 -4.113281 9.859375 -5.65625 Z M 9.859375 -7 "/></g></g></g><g fill="#ffffff" fill-opacity="1"><g transform="translate(197.58899, 307.789228)"><g><path d="M 2.671875 -0.90625 L 8.90625 -0.90625 L 8.90625 0 L 1.59375 0 L 1.59375 -12.625 L 2.671875 -12.625 Z M 2.671875 -0.90625 "/></g></g></g><g fill="#ffffff" fill-opacity="1"><g transform="translate(210.309463, 307.789228)"><g><path d="M 2.671875 -0.90625 L 8.90625 -0.90625 L 8.90625 0 L 1.59375 0 L 1.59375 -12.625 L 2.671875 -12.625 Z M 2.671875 -0.90625 "/></g></g></g><g fill="#ffffff" fill-opacity="1"><g transform="translate(223.029936, 307.789228)"><g><path d="M 10.921875 -5.625 C 10.921875 -4.46875 10.71875 -3.445312 10.3125 -2.5625 C 9.914062 -1.6875 9.34375 -1.007812 8.59375 -0.53125 C 7.851562 -0.0625 6.992188 0.171875 6.015625 0.171875 C 4.546875 0.171875 3.351562 -0.351562 2.4375 -1.40625 C 1.53125 -2.457031 1.078125 -3.878906 1.078125 -5.671875 L 1.078125 -6.984375 C 1.078125 -8.128906 1.28125 -9.144531 1.6875 -10.03125 C 2.101562 -10.914062 2.679688 -11.597656 3.421875 -12.078125 C 4.171875 -12.554688 5.03125 -12.796875 6 -12.796875 C 6.96875 -12.796875 7.820312 -12.5625 8.5625 -12.09375 C 9.3125 -11.625 9.882812 -10.960938 10.28125 -10.109375 C 10.6875 -9.253906 10.898438 -8.265625 10.921875 -7.140625 Z M 9.859375 -7 C 9.859375 -8.519531 9.515625 -9.707031 8.828125 -10.5625 C 8.140625 -11.425781 7.195312 -11.859375 6 -11.859375 C 4.820312 -11.859375 3.882812 -11.425781 3.1875 -10.5625 C 2.5 -9.695312 2.15625 -8.488281 2.15625 -6.9375 L 2.15625 -5.625 C 2.15625 -4.125 2.5 -2.9375 3.1875 -2.0625 C 3.882812 -1.1875 4.828125 -0.75 6.015625 -0.75 C 7.222656 -0.75 8.164062 -1.179688 8.84375 -2.046875 C 9.519531 -2.910156 9.859375 -4.113281 9.859375 -5.65625 Z M 9.859375 -7 "/></g></g></g><g fill="#ffffff" fill-opacity="1"><g transform="translate(238.410005, 307.789228)"><g/></g></g><g fill="#ffffff" fill-opacity="1"><g transform="translate(246.097173, 307.789228)"><g><path d="M 3.921875 -3.40625 L 4.3125 -1.453125 L 4.796875 -3.3125 L 7.53125 -12.625 L 8.5 -12.625 L 11.203125 -3.3125 L 11.671875 -1.4375 L 12.078125 -3.40625 L 14.359375 -12.625 L 15.453125 -12.625 L 12.21875 0 L 11.203125 0 L 8.34375 -9.875 L 8.015625 -11.125 L 7.703125 -9.875 L 4.78125 0 L 3.75 0 L 0.53125 -12.625 L 1.625 -12.625 Z M 3.921875 -3.40625 "/></g></g></g><g fill="#ffffff" fill-opacity="1"><g transform="translate(265.375671, 307.789228)"><g><path d="M 8.5625 -6.046875 L 2.65625 -6.046875 L 2.65625 -0.90625 L 9.453125 -0.90625 L 9.453125 0 L 1.59375 0 L 1.59375 -12.625 L 9.40625 -12.625 L 9.40625 -11.703125 L 2.65625 -11.703125 L 2.65625 -6.953125 L 8.5625 -6.953125 Z M 8.5625 -6.046875 "/></g></g></g><g fill="#ffffff" fill-opacity="1"><g transform="translate(278.841178, 307.789228)"><g><path d="M 1.59375 0 L 1.59375 -12.625 L 5.328125 -12.625 C 6.671875 -12.625 7.691406 -12.34375 8.390625 -11.78125 C 9.097656 -11.226562 9.453125 -10.40625 9.453125 -9.3125 C 9.453125 -8.664062 9.269531 -8.097656 8.90625 -7.609375 C 8.550781 -7.128906 8.066406 -6.785156 7.453125 -6.578125 C 8.179688 -6.410156 8.769531 -6.046875 9.21875 -5.484375 C 9.664062 -4.929688 9.890625 -4.285156 9.890625 -3.546875 C 9.890625 -2.429688 9.53125 -1.5625 8.8125 -0.9375 C 8.09375 -0.3125 7.09375 0 5.8125 0 Z M 2.65625 -6.0625 L 2.65625 -0.90625 L 5.859375 -0.90625 C 6.773438 -0.90625 7.5 -1.132812 8.03125 -1.59375 C 8.5625 -2.0625 8.828125 -2.707031 8.828125 -3.53125 C 8.828125 -4.3125 8.570312 -4.925781 8.0625 -5.375 C 7.550781 -5.832031 6.847656 -6.0625 5.953125 -6.0625 Z M 2.65625 -6.953125 L 5.578125 -6.953125 C 6.460938 -6.972656 7.148438 -7.179688 7.640625 -7.578125 C 8.128906 -7.984375 8.375 -8.570312 8.375 -9.34375 C 8.375 -10.15625 8.117188 -10.75 7.609375 -11.125 C 7.109375 -11.507812 6.347656 -11.703125 5.328125 -11.703125 L 2.65625 -11.703125 Z M 2.65625 -6.953125 "/></g></g></g></svg>