<svg xmlns="http://www.w3.org/2000/svg" xmlns:xlink="http://www.w3.org/1999/xlink" width="500" zoomAndPan="magnify" viewBox="0 0 375 374.999991" height="500" preserveAspectRatio="xMidYMid meet" version="1.0"><defs><clipPath id="0168878344"><path d="M 6.09375 11.699219 L 368.90625 11.699219 L 368.90625 363.300781 L 6.09375 363.300781 Z M 6.09375 11.699219 " clip-rule="nonzero"/></clipPath><clipPath id="3da49c6c24"><path d="M 187.5 11.699219 C 87.3125 11.699219 6.09375 90.40625 6.09375 187.5 C 6.09375 284.59375 87.3125 363.300781 187.5 363.300781 C 287.6875 363.300781 368.90625 284.59375 368.90625 187.5 C 368.90625 90.40625 287.6875 11.699219 187.5 11.699219 Z M 187.5 11.699219 " clip-rule="nonzero"/></clipPath><clipPath id="bd7f53af14"><path d="M 48.867188 64.507812 L 311.367188 64.507812 L 311.367188 284.257812 L 48.867188 284.257812 Z M 48.867188 64.507812 " clip-rule="nonzero"/></clipPath><clipPath id="b888f4a3a3"><path d="M 282.855469 117.589844 C 265.210938 99.929688 240.777344 89.0625 213.839844 89.0625 L 165.914062 89.0625 C 164.453125 80.808594 157.25 74.539062 148.480469 74.539062 C 138.769531 74.539062 130.832031 82.480469 130.832031 92.199219 C 130.832031 93.558594 130.9375 94.8125 131.25 96.066406 L 91.992188 112.785156 L 70.902344 103.378906 C 70.902344 102.960938 71.003906 102.4375 71.003906 102.019531 C 71.003906 95.855469 65.992188 90.945312 59.9375 90.945312 C 53.777344 90.945312 48.871094 95.855469 48.871094 102.019531 C 48.871094 108.082031 53.777344 113.097656 59.9375 113.097656 C 61.816406 113.097656 63.59375 112.574219 65.15625 111.738281 L 96.167969 142.773438 L 96.167969 284.257812 L 213.839844 284.257812 C 240.777344 284.257812 265.210938 273.285156 282.855469 255.625 C 300.503906 237.96875 311.359375 213.621094 311.359375 186.660156 C 311.359375 159.703125 300.503906 135.25 282.855469 117.589844 Z M 69.542969 70.777344 C 71.320312 70.777344 72.675781 69.417969 72.675781 67.644531 C 72.675781 65.867188 71.320312 64.507812 69.542969 64.507812 C 67.871094 64.507812 66.410156 65.867188 66.410156 67.644531 C 66.410156 69.417969 67.871094 70.777344 69.542969 70.777344 Z M 85.519531 94.601562 C 89.800781 94.601562 93.140625 91.152344 93.140625 86.972656 C 93.140625 82.691406 89.800781 79.347656 85.519531 79.347656 C 81.34375 79.347656 77.894531 82.691406 77.894531 86.972656 C 77.894531 91.152344 81.34375 94.601562 85.519531 94.601562 Z M 116.214844 87.390625 C 116.214844 84.78125 114.023438 82.585938 111.414062 82.585938 C 108.800781 82.585938 106.609375 84.78125 106.609375 87.390625 C 106.609375 90.003906 108.800781 92.199219 111.414062 92.199219 C 114.023438 92.199219 116.214844 90.003906 116.214844 87.390625 Z M 145.347656 109.648438 L 145.347656 136.503906 L 124.359375 127.203125 L 124.359375 126.265625 C 124.359375 124.695312 123.941406 123.234375 123.316406 121.980469 L 138.457031 106.828125 C 140.4375 108.1875 142.839844 109.230469 145.347656 109.648438 Z M 160.484375 105.261719 L 204.234375 138.28125 L 151.714844 138.28125 L 151.714844 109.648438 C 155.054688 109.023438 158.085938 107.453125 160.484375 105.261719 Z M 157.144531 98.574219 L 157.039062 98.675781 C 155.160156 101.289062 152.027344 102.960938 148.480469 102.960938 C 145.554688 102.960938 142.839844 101.707031 140.960938 99.828125 C 138.976562 97.839844 137.828125 95.230469 137.828125 92.199219 C 137.828125 86.347656 142.632812 81.539062 148.480469 81.539062 C 154.429688 81.539062 159.234375 86.347656 159.234375 92.199219 C 159.234375 94.601562 158.398438 96.796875 157.144531 98.574219 Z M 133.757812 102.019531 L 133.964844 102.335938 L 118.824219 117.382812 C 117.46875 116.753906 116.007812 116.441406 114.441406 116.441406 C 111.621094 116.441406 109.011719 117.589844 107.234375 119.578125 L 99.925781 116.335938 Z M 121.75 133.054688 L 145.347656 143.503906 L 145.347656 182.898438 L 103.894531 141.414062 L 110.160156 135.144531 C 111.414062 135.773438 112.875 136.191406 114.441406 136.191406 C 117.363281 136.191406 119.871094 134.9375 121.75 133.054688 Z M 118.304688 128.039062 Z M 114.441406 122.1875 C 115.589844 122.1875 116.632812 122.605469 117.363281 123.339844 C 118.199219 124.070312 118.617188 125.113281 118.617188 126.265625 C 118.617188 126.890625 118.511719 127.414062 118.304688 127.9375 L 118.304688 128.039062 C 117.574219 129.503906 116.109375 130.445312 114.441406 130.445312 C 113.292969 130.445312 112.246094 130.027344 111.515625 129.191406 C 110.785156 128.457031 110.367188 127.414062 110.367188 126.265625 C 110.367188 123.964844 112.144531 122.1875 114.441406 122.1875 Z M 104.625 126.265625 C 104.625 127.832031 104.9375 129.292969 105.566406 130.652344 L 99.300781 136.921875 L 74.449219 111.949219 L 104.625 125.429688 Z M 151.714844 144.65625 L 213.839844 144.65625 C 225.429688 144.65625 235.871094 149.355469 243.492188 156.984375 C 251.117188 164.507812 255.8125 175.0625 255.8125 186.660156 C 255.8125 198.261719 251.117188 208.710938 243.492188 216.335938 C 235.871094 223.859375 225.429688 228.5625 213.839844 228.5625 L 151.714844 228.5625 Z M 151.714844 144.65625 " clip-rule="nonzero"/></clipPath><linearGradient x1="665.540464" gradientTransform="matrix(0.104412, 0, 0, 0.104494, 48.869922, 64.508058)" y1="-292.903679" x2="1848.813607" gradientUnits="userSpaceOnUse" y2="2395.747998" id="13a7655c8e"><stop stop-opacity="1" stop-color="rgb(18.798828%, 37.298584%, 87.5%)" offset="0"/><stop stop-opacity="1" stop-color="rgb(18.798828%, 37.298584%, 87.5%)" offset="0.25"/><stop stop-opacity="1" stop-color="rgb(18.798828%, 37.298584%, 87.5%)" offset="0.257812"/><stop stop-opacity="1" stop-color="rgb(19.036865%, 37.220764%, 87.239075%)" offset="0.261719"/><stop stop-opacity="1" stop-color="rgb(19.276428%, 37.142944%, 86.979675%)" offset="0.265625"/><stop stop-opacity="1" stop-color="rgb(19.606018%, 37.033081%, 86.619568%)" offset="0.269531"/><stop stop-opacity="1" stop-color="rgb(19.937134%, 36.924744%, 86.260986%)" offset="0.273438"/><stop stop-opacity="1" stop-color="rgb(20.26825%, 36.81488%, 85.900879%)" offset="0.277344"/><stop stop-opacity="1" stop-color="rgb(20.599365%, 36.706543%, 85.540771%)" offset="0.28125"/><stop stop-opacity="1" stop-color="rgb(20.928955%, 36.598206%, 85.180664%)" offset="0.285156"/><stop stop-opacity="1" stop-color="rgb(21.260071%, 36.489868%, 84.822083%)" offset="0.289062"/><stop stop-opacity="1" stop-color="rgb(21.591187%, 36.380005%, 84.461975%)" offset="0.292969"/><stop stop-opacity="1" stop-color="rgb(21.922302%, 36.271667%, 84.101868%)" offset="0.296875"/><stop stop-opacity="1" stop-color="rgb(22.251892%, 36.16333%, 83.74176%)" offset="0.300781"/><stop stop-opacity="1" stop-color="rgb(22.583008%, 36.054993%, 83.383179%)" offset="0.304688"/><stop stop-opacity="1" stop-color="rgb(22.914124%, 35.945129%, 83.023071%)" offset="0.308594"/><stop stop-opacity="1" stop-color="rgb(23.245239%, 35.836792%, 82.662964%)" offset="0.3125"/><stop stop-opacity="1" stop-color="rgb(23.574829%, 35.726929%, 82.302856%)" offset="0.316406"/><stop stop-opacity="1" stop-color="rgb(23.905945%, 35.618591%, 81.944275%)" offset="0.320312"/><stop stop-opacity="1" stop-color="rgb(24.237061%, 35.510254%, 81.584167%)" offset="0.324219"/><stop stop-opacity="1" stop-color="rgb(24.568176%, 35.401917%, 81.22406%)" offset="0.328125"/><stop stop-opacity="1" stop-color="rgb(24.899292%, 35.292053%, 80.863953%)" offset="0.332031"/><stop stop-opacity="1" stop-color="rgb(25.230408%, 35.183716%, 80.505371%)" offset="0.335938"/><stop stop-opacity="1" stop-color="rgb(25.559998%, 35.075378%, 80.145264%)" offset="0.339844"/><stop stop-opacity="1" stop-color="rgb(25.891113%, 34.967041%, 79.785156%)" offset="0.34375"/><stop stop-opacity="1" stop-color="rgb(26.222229%, 34.857178%, 79.425049%)" offset="0.347656"/><stop stop-opacity="1" stop-color="rgb(26.553345%, 34.74884%, 79.066467%)" offset="0.351562"/><stop stop-opacity="1" stop-color="rgb(26.882935%, 34.638977%, 78.70636%)" offset="0.355469"/><stop stop-opacity="1" stop-color="rgb(27.21405%, 34.53064%, 78.346252%)" offset="0.359375"/><stop stop-opacity="1" stop-color="rgb(27.545166%, 34.422302%, 77.986145%)" offset="0.363281"/><stop stop-opacity="1" stop-color="rgb(27.876282%, 34.313965%, 77.626038%)" offset="0.367188"/><stop stop-opacity="1" stop-color="rgb(28.205872%, 34.204102%, 77.26593%)" offset="0.371094"/><stop stop-opacity="1" stop-color="rgb(28.536987%, 34.095764%, 76.907349%)" offset="0.375"/><stop stop-opacity="1" stop-color="rgb(28.868103%, 33.987427%, 76.547241%)" offset="0.378906"/><stop stop-opacity="1" stop-color="rgb(29.199219%, 33.879089%, 76.187134%)" offset="0.382812"/><stop stop-opacity="1" stop-color="rgb(29.528809%, 33.769226%, 75.827026%)" offset="0.386719"/><stop stop-opacity="1" stop-color="rgb(29.859924%, 33.660889%, 75.468445%)" offset="0.390625"/><stop stop-opacity="1" stop-color="rgb(30.19104%, 33.551025%, 75.108337%)" offset="0.394531"/><stop stop-opacity="1" stop-color="rgb(30.522156%, 33.442688%, 74.74823%)" offset="0.398438"/><stop stop-opacity="1" stop-color="rgb(30.851746%, 33.334351%, 74.388123%)" offset="0.402344"/><stop stop-opacity="1" stop-color="rgb(31.182861%, 33.226013%, 74.029541%)" offset="0.40625"/><stop stop-opacity="1" stop-color="rgb(31.513977%, 33.11615%, 73.669434%)" offset="0.410156"/><stop stop-opacity="1" stop-color="rgb(31.845093%, 33.007812%, 73.309326%)" offset="0.414062"/><stop stop-opacity="1" stop-color="rgb(32.174683%, 32.899475%, 72.949219%)" offset="0.417969"/><stop stop-opacity="1" stop-color="rgb(32.505798%, 32.791138%, 72.590637%)" offset="0.421875"/><stop stop-opacity="1" stop-color="rgb(32.836914%, 32.681274%, 72.23053%)" offset="0.425781"/><stop stop-opacity="1" stop-color="rgb(33.16803%, 32.572937%, 71.870422%)" offset="0.429688"/><stop stop-opacity="1" stop-color="rgb(33.49762%, 32.463074%, 71.510315%)" offset="0.433594"/><stop stop-opacity="1" stop-color="rgb(33.828735%, 32.354736%, 71.151733%)" offset="0.4375"/><stop stop-opacity="1" stop-color="rgb(34.159851%, 32.246399%, 70.791626%)" offset="0.441406"/><stop stop-opacity="1" stop-color="rgb(34.490967%, 32.138062%, 70.431519%)" offset="0.445312"/><stop stop-opacity="1" stop-color="rgb(34.820557%, 32.028198%, 70.071411%)" offset="0.449219"/><stop stop-opacity="1" stop-color="rgb(35.151672%, 31.919861%, 69.711304%)" offset="0.453125"/><stop stop-opacity="1" stop-color="rgb(35.482788%, 31.811523%, 69.351196%)" offset="0.457031"/><stop stop-opacity="1" stop-color="rgb(35.813904%, 31.703186%, 68.992615%)" offset="0.460938"/><stop stop-opacity="1" stop-color="rgb(36.143494%, 31.593323%, 68.632507%)" offset="0.464844"/><stop stop-opacity="1" stop-color="rgb(36.474609%, 31.484985%, 68.2724%)" offset="0.46875"/><stop stop-opacity="1" stop-color="rgb(36.805725%, 31.375122%, 67.912292%)" offset="0.472656"/><stop stop-opacity="1" stop-color="rgb(37.136841%, 31.266785%, 67.553711%)" offset="0.476563"/><stop stop-opacity="1" stop-color="rgb(37.466431%, 31.158447%, 67.193604%)" offset="0.480469"/><stop stop-opacity="1" stop-color="rgb(37.797546%, 31.05011%, 66.833496%)" offset="0.484375"/><stop stop-opacity="1" stop-color="rgb(38.128662%, 30.940247%, 66.473389%)" offset="0.488281"/><stop stop-opacity="1" stop-color="rgb(38.459778%, 30.831909%, 66.114807%)" offset="0.492188"/><stop stop-opacity="1" stop-color="rgb(38.789368%, 30.723572%, 65.7547%)" offset="0.496094"/><stop stop-opacity="1" stop-color="rgb(39.120483%, 30.615234%, 65.394592%)" offset="0.5"/><stop stop-opacity="1" stop-color="rgb(39.451599%, 30.505371%, 65.034485%)" offset="0.503906"/><stop stop-opacity="1" stop-color="rgb(39.782715%, 30.397034%, 64.675903%)" offset="0.507812"/><stop stop-opacity="1" stop-color="rgb(40.112305%, 30.28717%, 64.315796%)" offset="0.511719"/><stop stop-opacity="1" stop-color="rgb(40.44342%, 30.178833%, 63.955688%)" offset="0.515625"/><stop stop-opacity="1" stop-color="rgb(40.774536%, 30.070496%, 63.595581%)" offset="0.519531"/><stop stop-opacity="1" stop-color="rgb(41.105652%, 29.962158%, 63.237%)" offset="0.523438"/><stop stop-opacity="1" stop-color="rgb(41.456604%, 29.846191%, 62.854004%)" offset="0.527344"/><stop stop-opacity="1" stop-color="rgb(41.809082%, 29.730225%, 62.471008%)" offset="0.53125"/><stop stop-opacity="1" stop-color="rgb(42.222595%, 29.592896%, 62.020874%)" offset="0.535156"/><stop stop-opacity="1" stop-color="rgb(42.636108%, 29.455566%, 61.57074%)" offset="0.539062"/><stop stop-opacity="1" stop-color="rgb(43.048096%, 29.318237%, 61.11908%)" offset="0.542969"/><stop stop-opacity="1" stop-color="rgb(43.461609%, 29.180908%, 60.668945%)" offset="0.546875"/><stop stop-opacity="1" stop-color="rgb(43.875122%, 29.043579%, 60.218811%)" offset="0.550781"/><stop stop-opacity="1" stop-color="rgb(44.288635%, 28.90625%, 59.768677%)" offset="0.554688"/><stop stop-opacity="1" stop-color="rgb(44.702148%, 28.768921%, 59.317017%)" offset="0.558594"/><stop stop-opacity="1" stop-color="rgb(45.115662%, 28.631592%, 58.866882%)" offset="0.5625"/><stop stop-opacity="1" stop-color="rgb(45.529175%, 28.494263%, 58.416748%)" offset="0.566406"/><stop stop-opacity="1" stop-color="rgb(45.942688%, 28.358459%, 57.966614%)" offset="0.570312"/><stop stop-opacity="1" stop-color="rgb(46.356201%, 28.22113%, 57.514954%)" offset="0.574219"/><stop stop-opacity="1" stop-color="rgb(46.769714%, 28.083801%, 57.064819%)" offset="0.578125"/><stop stop-opacity="1" stop-color="rgb(47.183228%, 27.946472%, 56.614685%)" offset="0.582031"/><stop stop-opacity="1" stop-color="rgb(47.596741%, 27.809143%, 56.164551%)" offset="0.585937"/><stop stop-opacity="1" stop-color="rgb(48.010254%, 27.671814%, 55.712891%)" offset="0.589844"/><stop stop-opacity="1" stop-color="rgb(48.423767%, 27.534485%, 55.262756%)" offset="0.59375"/><stop stop-opacity="1" stop-color="rgb(48.835754%, 27.397156%, 54.812622%)" offset="0.597656"/><stop stop-opacity="1" stop-color="rgb(49.249268%, 27.259827%, 54.362488%)" offset="0.601562"/><stop stop-opacity="1" stop-color="rgb(49.662781%, 27.122498%, 53.912354%)" offset="0.605469"/><stop stop-opacity="1" stop-color="rgb(50.076294%, 26.986694%, 53.462219%)" offset="0.609375"/><stop stop-opacity="1" stop-color="rgb(50.489807%, 26.849365%, 53.010559%)" offset="0.613281"/><stop stop-opacity="1" stop-color="rgb(50.90332%, 26.712036%, 52.560425%)" offset="0.617188"/><stop stop-opacity="1" stop-color="rgb(51.316833%, 26.574707%, 52.110291%)" offset="0.621094"/><stop stop-opacity="1" stop-color="rgb(51.730347%, 26.437378%, 51.660156%)" offset="0.625"/><stop stop-opacity="1" stop-color="rgb(52.14386%, 26.300049%, 51.208496%)" offset="0.628906"/><stop stop-opacity="1" stop-color="rgb(52.557373%, 26.16272%, 50.758362%)" offset="0.632812"/><stop stop-opacity="1" stop-color="rgb(52.970886%, 26.025391%, 50.308228%)" offset="0.636719"/><stop stop-opacity="1" stop-color="rgb(53.384399%, 25.888062%, 49.858093%)" offset="0.640625"/><stop stop-opacity="1" stop-color="rgb(53.796387%, 25.750732%, 49.406433%)" offset="0.644531"/><stop stop-opacity="1" stop-color="rgb(54.2099%, 25.614929%, 48.956299%)" offset="0.648438"/><stop stop-opacity="1" stop-color="rgb(54.623413%, 25.4776%, 48.506165%)" offset="0.652344"/><stop stop-opacity="1" stop-color="rgb(55.036926%, 25.340271%, 48.05603%)" offset="0.65625"/><stop stop-opacity="1" stop-color="rgb(55.450439%, 25.202942%, 47.605896%)" offset="0.660156"/><stop stop-opacity="1" stop-color="rgb(55.863953%, 25.065613%, 47.155762%)" offset="0.664063"/><stop stop-opacity="1" stop-color="rgb(56.277466%, 24.928284%, 46.704102%)" offset="0.667969"/><stop stop-opacity="1" stop-color="rgb(56.690979%, 24.790955%, 46.253967%)" offset="0.671875"/><stop stop-opacity="1" stop-color="rgb(57.104492%, 24.653625%, 45.803833%)" offset="0.675781"/><stop stop-opacity="1" stop-color="rgb(57.518005%, 24.516296%, 45.353699%)" offset="0.679688"/><stop stop-opacity="1" stop-color="rgb(57.931519%, 24.378967%, 44.902039%)" offset="0.683594"/><stop stop-opacity="1" stop-color="rgb(58.345032%, 24.243164%, 44.451904%)" offset="0.6875"/><stop stop-opacity="1" stop-color="rgb(58.757019%, 24.105835%, 44.00177%)" offset="0.691406"/><stop stop-opacity="1" stop-color="rgb(59.170532%, 23.968506%, 43.551636%)" offset="0.695312"/><stop stop-opacity="1" stop-color="rgb(59.584045%, 23.831177%, 43.099976%)" offset="0.699219"/><stop stop-opacity="1" stop-color="rgb(59.997559%, 23.693848%, 42.649841%)" offset="0.703125"/><stop stop-opacity="1" stop-color="rgb(60.411072%, 23.556519%, 42.199707%)" offset="0.707031"/><stop stop-opacity="1" stop-color="rgb(60.824585%, 23.419189%, 41.749573%)" offset="0.710938"/><stop stop-opacity="1" stop-color="rgb(61.238098%, 23.28186%, 41.299438%)" offset="0.714844"/><stop stop-opacity="1" stop-color="rgb(61.651611%, 23.144531%, 40.849304%)" offset="0.71875"/><stop stop-opacity="1" stop-color="rgb(62.065125%, 23.007202%, 40.397644%)" offset="0.722656"/><stop stop-opacity="1" stop-color="rgb(62.478638%, 22.871399%, 39.94751%)" offset="0.726562"/><stop stop-opacity="1" stop-color="rgb(62.892151%, 22.73407%, 39.497375%)" offset="0.730469"/><stop stop-opacity="1" stop-color="rgb(63.305664%, 22.596741%, 39.047241%)" offset="0.734375"/><stop stop-opacity="1" stop-color="rgb(63.601685%, 22.497559%, 38.722229%)" offset="0.738281"/><stop stop-opacity="1" stop-color="rgb(63.899231%, 22.399902%, 38.398743%)" offset="0.742188"/><stop stop-opacity="1" stop-color="rgb(63.899231%, 22.399902%, 38.398743%)" offset="0.75"/><stop stop-opacity="1" stop-color="rgb(63.899231%, 22.399902%, 38.398743%)" offset="1"/></linearGradient></defs><g clip-path="url(#0168878344)"><g clip-path="url(#3da49c6c24)"><path fill="#fbfaf9" d="M 6.09375 11.699219 L 368.90625 11.699219 L 368.90625 363.300781 L 6.09375 363.300781 Z M 6.09375 11.699219 " fill-opacity="1" fill-rule="nonzero"/></g></g><g clip-path="url(#bd7f53af14)"><g clip-path="url(#b888f4a3a3)"><path fill="url(#13a7655c8e)" d="M 48.871094 64.507812 L 48.871094 284.257812 L 311.359375 284.257812 L 311.359375 64.507812 Z M 48.871094 64.507812 " fill-rule="nonzero"/></g></g></svg>